<svg xmlns="http://www.w3.org/2000/svg" viewBox="0 0 45.14 45.62"><defs><style>.a{fill:none;stroke:#7e96a3;stroke-miterlimit:10;stroke-width:2.93px;}.b{fill:#99a8b0;}</style></defs><title>zaza handcr-WF+Mockup </title><path class="a" d="M2.41,1.48H42.3a1.34,1.34,0,0,1,1.34,1.34V43.24a.9.9,0,0,1-.9.9H2.41a.9.9,0,0,1-.9-.9V2.38a.9.9,0,0,1,.9-.9Z" transform="translate(45.14 45.62) rotate(180)"/><path class="b" d="M26.6,10.07l-12,12a1,1,0,0,0,0,1.42L26.66,35.55A.73.73,0,0,0,27.91,35l-.06-24.45A.73.73,0,0,0,26.6,10.07Z"/></svg>