<?xml version="1.0" encoding="utf-8"?>
<!-- Generator: Adobe Illustrator 23.0.3, SVG Export Plug-In . SVG Version: 6.00 Build 0)  -->
<svg version="1.1" id="圖層_1" xmlns="http://www.w3.org/2000/svg" xmlns:xlink="http://www.w3.org/1999/xlink" x="0px" y="0px"
	 viewBox="0 0 113.4 113.4" style="enable-background:new 0 0 113.4 113.4;" xml:space="preserve">
<style type="text/css">
	.st0{fill:#212121;}
</style>
<g>
	<path class="st0" d="M17.6,9.6c0-2.3,1.9-4.2,4.2-4.2h86.5c2.3,0,4.2,1.9,4.2,4.2s-1.9,4.2-4.2,4.2H21.8
		C19.5,13.8,17.6,12,17.6,9.6z"/>
	<path class="st0" d="M45.5,103.8c0-2.3,1.9-4.2,4.2-4.2h58.6c2.3,0,4.2,1.9,4.2,4.2s-1.9,4.2-4.2,4.2H49.7
		C47.4,107.9,45.5,106.1,45.5,103.8z"/>
	<path class="st0" d="M5.1,51.8c-2.3,0-4.2,1.9-4.2,4.2c0,2.3,1.9,4.2,4.2,4.2h103.3c2.3,0,4.2-1.9,4.2-4.2c0-2.3-1.9-4.2-4.2-4.2
		H5.1z"/>
</g>
</svg>
