<svg xmlns="http://www.w3.org/2000/svg" viewBox="0 0 1113.54 1048.9"><defs><style>.a{fill:#203842;}</style></defs><title>bars-solid</title><path class="a" d="M1071.39,619.24H62.47a52.46,52.46,0,0,1-52.31-52.31h0a52.46,52.46,0,0,1,52.31-52.31H1071.39a52.46,52.46,0,0,1,52.31,52.31h0A52.46,52.46,0,0,1,1071.39,619.24Z" transform="translate(-10.16 -42.48)"/><path class="a" d="M1071.39,1091.38H556.29A52.47,52.47,0,0,1,504,1039.07h0a52.47,52.47,0,0,1,52.32-52.32h515.1a52.47,52.47,0,0,1,52.31,52.32h0A52.46,52.46,0,0,1,1071.39,1091.38Z" transform="translate(-10.16 -42.48)"/><path class="a" d="M1071.39,147.1H237.51A52.46,52.46,0,0,1,185.2,94.79h0a52.46,52.46,0,0,1,52.31-52.31h833.88a52.46,52.46,0,0,1,52.31,52.31h0A52.46,52.46,0,0,1,1071.39,147.1Z" transform="translate(-10.16 -42.48)"/></svg>