<?xml version="1.0" encoding="utf-8"?>
<!-- Generator: Adobe Illustrator 23.0.3, SVG Export Plug-In . SVG Version: 6.00 Build 0)  -->
<svg version="1.1" id="圖層_1" xmlns="http://www.w3.org/2000/svg" xmlns:xlink="http://www.w3.org/1999/xlink" x="0px" y="0px"
	 viewBox="0 0 108 112" style="enable-background:new 0 0 108 112;" xml:space="preserve">
<style type="text/css">
	.st0{fill:#FFFFFF;stroke:#424242;stroke-width:0.5;stroke-miterlimit:10;}
	.st1{display:none;}
	.st2{display:inline;fill:#1D1D1B;}
	.st3{display:inline;fill:#EC9A27;}
	.st4{display:inline;fill:#D7D7D7;}
	.st5{display:inline;fill:#6CC4DF;}
	.st6{display:inline;}
	.st7{fill:#1D1D1B;}
	.st8{fill:#DDA097;}
	.st9{fill:#D7D7D7;}
	.st10{fill:#F4BB2A;}
	.st11{fill:#F1D6BD;}
	.st12{display:inline;fill:#F4BB2A;}
	.st13{display:inline;fill:#8A4936;}
	.st14{clip-path:url(#SVGID_2_);}
	.st15{fill:#B0CEEE;}
	.st16{fill:#ABC2EA;}
	.st17{display:inline;fill:#EB6A71;}
	.st18{display:inline;fill:#F5C282;}
	.st19{fill:#424242;stroke:#424242;stroke-width:0.25;stroke-miterlimit:10;}
	.st20{font-family:'SwensonRegular';}
	.st21{font-size:8.3521px;}
	.st22{fill:#424242;}
	.st23{font-family:'PlantagenetCherokee';}
	.st24{font-size:17.1266px;}
</style>
<g>
	
		<rect x="7.65" y="10.07" transform="matrix(-1.836970e-16 1 -1 -1.836970e-16 110.4852 2.4252)" class="st0" width="92.76" height="92.76"/>
	<g>
		<g class="st1">
			<path class="st2" d="M62.55-0.93c0.73,0.09,1.4,0.8,1.27,1.57c-0.11,0.67-0.75,0.88-1.35,0.91c0.01,0.02,0.02,0.06,0,0.09
				c-0.99,2.89-1.62,6.09-3.13,8.77c-0.01,0.04-0.02,0.07-0.04,0.11c-0.04,0.14-0.26,0.08-0.22-0.06c0.68-3.07,1.41-6.27,2.38-9.27
				c0.01-0.02,0.02-0.03,0.03-0.04c-0.26-0.24-0.41-0.6-0.38-0.95C61.17-0.5,61.86-1.01,62.55-0.93z M63.36,0.8
				c0.29-0.52-0.16-1.16-0.68-1.31c-0.5-0.15-1.07,0.15-1.19,0.67c-0.13,0.58,0.41,0.92,0.89,1.01c0.02,0,0.03,0.01,0.04,0.02
				C62.79,1.19,63.18,1.12,63.36,0.8z M62.22,1.54c-0.02,0-0.05,0-0.08,0C62.05,1.53,62,1.48,61.98,1.41
				c-0.13-0.02-0.26-0.08-0.37-0.15c-0.41,2.56-1.09,5.19-1.84,7.71c0.98-2.4,1.7-4.93,2.43-7.4C62.21,1.56,62.21,1.55,62.22,1.54z"
				/>
			<path class="st3" d="M62.69-0.51c0.52,0.15,0.97,0.8,0.68,1.31c-0.18,0.32-0.57,0.39-0.93,0.39c-0.01-0.01-0.02-0.02-0.04-0.02
				c-0.49-0.09-1.02-0.42-0.89-1.01C61.61-0.37,62.19-0.66,62.69-0.51z M62.79,0.84c0.23-0.35,0.01-0.91-0.39-1.01
				c-0.13-0.03-0.21,0.15-0.09,0.21c0.27,0.15,0.35,0.41,0.23,0.69C62.48,0.89,62.71,0.97,62.79,0.84z"/>
			<path class="st2" d="M62.4-0.17c0.4,0.11,0.62,0.66,0.39,1.01c-0.08,0.13-0.31,0.04-0.25-0.11c0.11-0.28,0.04-0.54-0.23-0.69
				C62.19-0.02,62.27-0.21,62.4-0.17z"/>
			<path class="st4" d="M62.14,1.54c0.03,0,0.05,0,0.08,0c0,0.01-0.01,0.01-0.01,0.02c-0.73,2.47-1.45,5-2.43,7.4
				c0.75-2.52,1.42-5.15,1.84-7.71c0.11,0.08,0.23,0.13,0.37,0.15C62,1.48,62.05,1.53,62.14,1.54z"/>
		</g>
		<g class="st1">
			<path class="st2" d="M44.64,20.98c0.1,0.22-0.14,0.41-0.31,0.34c-0.08,0.09-0.23,0.13-0.33,0c-3.23-3.78-6.37-7.65-9.54-11.48
				c-1.59-1.91-3.15-3.85-4.76-5.75c-0.92-1.08-1.78-1.66-3.29-1.28c-1.05,0.26-2.01,0.8-3.06,1.09c-3.45,0.96-5.79-1.92-6-5.17
				c-0.18-2.76,1.89-6.08,4.96-5.52c0.05-0.03,0.12-0.03,0.18,0.03c0,0,0,0.01,0.01,0.01c0.03,0.01,0.06,0.01,0.09,0.02
				c0.09,0.02,0.12,0.11,0.1,0.18c2.25,2.38,4.26,5.04,6.26,7.62c0.49,0.64,0.99,1.28,1.48,1.92c0.48,0.62,0.91,0.93,1.6,1.14
				c-2.33-4.22-5.07-8.11-7.63-12.19c-0.08-0.13,0.08-0.27,0.2-0.23c0-0.01,0-0.03,0.01-0.04c1.57-3.55,6.59-3.89,8.62-0.58
				c1.03,1.68,0.93,3.51,0.09,5.24c-0.57,1.18-1.47,2.38-1.46,3.75c0.02,1.66,1.35,3.32,2.05,4.78c0.4,0.24,0.77,0.52,1.13,0.83
				C39.51,9.63,42.14,15.72,44.64,20.98z M43.75,20.25c-1.2-2.48-2.43-4.95-3.84-7.31c-1.52-2.55-3.29-5.36-5.67-7.2
				c-0.77-0.6-1.55-0.89-2.49-1.11c-0.36-0.09-0.65-0.15-0.94-0.38c-0.19-0.15-0.38-0.32-0.55-0.51c-0.73-0.79-1.34-1.87-1.96-2.67
				c-0.3-0.38-0.6-0.76-0.9-1.14c-1.69-2.1-3.44-4.16-5.04-6.33c-3.19,0.07-4.76,2.96-4.41,5.72c0.14,1.13,0.62,2.24,1.43,3.12
				c3.04,3.3,6.6-2.01,9.68,0.22c0.43,0.31,0.82,0.68,1.18,1.09c0.81,0.9,1.52,1.98,2.24,2.85c1.32,1.6,2.64,3.19,3.96,4.79
				C38.88,14.34,41.34,17.28,43.75,20.25z M33.35-5.19c0.52-2.12-0.73-4.55-2.8-5.3c-2.18-0.79-4.54,0.39-5.64,2.31
				c-0.03,0.06-0.09,0.08-0.15,0.07c3.05,3.75,5.53,8.12,7.86,12.34c0.01,0.03,0.02,0.05,0.02,0.07c0.16,0.05,0.32,0.11,0.48,0.18
				c-0.93-1.52-2.03-3.34-1.72-5.08C31.69-2.26,32.95-3.56,33.35-5.19z"/>
			<path class="st4" d="M39.91,12.94c1.42,2.37,2.64,4.84,3.84,7.31c-2.41-2.98-4.87-5.91-7.31-8.86c-1.32-1.6-2.64-3.19-3.96-4.79
				c-0.73-0.88-1.43-1.95-2.24-2.85l0.02-0.02c0.18,0.19,0.36,0.37,0.55,0.51c0.29,0.23,0.59,0.3,0.94,0.38
				c0.94,0.22,1.72,0.51,2.49,1.11C36.61,7.58,38.38,10.39,39.91,12.94z M37.01,10.83c0.13,0.15,0.36-0.07,0.22-0.21
				c-0.23-0.23-0.39-0.49-0.55-0.78c-0.06-0.11-0.24-0.04-0.2,0.08C36.56,10.27,36.78,10.58,37.01,10.83z M36.58,10.93
				c0.11,0.07,0.21-0.07,0.14-0.17c-0.14-0.18-0.31-0.33-0.44-0.53c-0.13-0.19-0.22-0.4-0.3-0.62c-0.03-0.09-0.16-0.06-0.15,0.04
				C35.91,10.11,36.17,10.67,36.58,10.93z M34.76,8.07c0.37-0.21,0.52-0.69,0.23-1.03c-0.21-0.24-0.57-0.33-0.85-0.22
				c-0.01,0-0.01,0-0.02,0c-0.4,0.07-0.51,0.64-0.37,0.96C33.93,8.17,34.4,8.28,34.76,8.07z"/>
			<path class="st2" d="M37.23,10.62c0.14,0.14-0.09,0.36-0.22,0.21c-0.23-0.26-0.44-0.57-0.53-0.91c-0.03-0.12,0.15-0.18,0.2-0.08
				C36.84,10.13,37,10.39,37.23,10.62z"/>
			<path class="st5" d="M30.55-10.48c2.07,0.75,3.33,3.17,2.8,5.3c-0.4,1.63-1.66,2.93-1.96,4.6c-0.3,1.74,0.79,3.56,1.72,5.08
				c-0.16-0.07-0.32-0.13-0.48-0.18c0-0.03-0.01-0.05-0.02-0.07C30.28,0.02,27.8-4.35,24.75-8.1c0.06,0,0.12-0.01,0.15-0.07
				C26.01-10.09,28.37-11.27,30.55-10.48z M32.77-6.68c-0.2-1.59-1.45-2.92-3.06-3.11c-1.47-0.17-3.31,0.61-3.55,2.2
				c-0.02,0.12,0.06,0.2,0.16,0.24c0.9,1.5,2.12,3.84,4.15,3.74C32.09-3.69,32.96-5.18,32.77-6.68z M27.45-9.86
				c0.16,0,0.17-0.23,0.01-0.24c-0.36-0.03-0.7,0.12-0.94,0.38c-0.1,0.1,0.05,0.26,0.15,0.16C26.89-9.78,27.15-9.86,27.45-9.86z
				 M27.37-9.38c0.12-0.08,0.06-0.29-0.1-0.25c-0.6,0.17-1.15,0.71-1.44,1.25c-0.08,0.15,0.13,0.28,0.23,0.14
				c0.18-0.24,0.36-0.46,0.58-0.65C26.87-9.09,27.12-9.22,27.37-9.38z"/>
			<path class="st2" d="M36.72,10.76c0.07,0.09-0.03,0.24-0.14,0.17c-0.41-0.26-0.67-0.81-0.75-1.28c-0.02-0.1,0.11-0.13,0.15-0.04
				c0.08,0.22,0.17,0.43,0.3,0.62C36.41,10.43,36.58,10.58,36.72,10.76z"/>
			<path class="st2" d="M34.99,7.04c0.29,0.34,0.14,0.82-0.23,1.03c-0.36,0.21-0.83,0.1-1.01-0.29c-0.14-0.31-0.03-0.89,0.37-0.96
				c0.01,0,0.02,0,0.02,0C34.42,6.71,34.78,6.8,34.99,7.04z M34.5,7.76c0.16-0.06,0.32-0.24,0.23-0.41
				c-0.1-0.19-0.38-0.23-0.54-0.11c-0.04,0.03-0.08,0.04-0.12,0.04c-0.02,0.08-0.02,0.17,0.01,0.28C34.14,7.75,34.31,7.83,34.5,7.76
				z"/>
			<path class="st4" d="M34.72,7.35c0.09,0.17-0.07,0.35-0.23,0.41c-0.19,0.07-0.36-0.02-0.42-0.2c-0.03-0.1-0.03-0.19-0.01-0.28
				c0.04,0,0.09-0.01,0.12-0.04C34.35,7.12,34.62,7.15,34.72,7.35z"/>
			<path class="st5" d="M30.25,3.73l-0.02,0.02c-0.37-0.41-0.76-0.78-1.18-1.09c-3.08-2.23-6.64,3.08-9.68-0.22
				c-0.82-0.89-1.29-1.99-1.43-3.12l0.73-0.09c0.17,1.19,0.93,2.29,2.38,2.74c1.29,0.4,3.79,0.2,4.23-1.38
				c0.02-0.06,0.03-0.12,0.04-0.19l0.52-0.09c-0.05,0.39-0.15,0.73-0.41,1.02c-0.08,0.09,0.05,0.23,0.13,0.14
				c0.19-0.19,0.35-0.42,0.44-0.68l0.52-0.05c-0.08,0.15-0.15,0.3-0.22,0.46c-0.06,0.13,0.12,0.26,0.2,0.12
				c0.1-0.15,0.19-0.3,0.29-0.45c0.09-0.15,0.19-0.29,0.25-0.45c0.03-0.08-0.01-0.15-0.07-0.17l0.4-0.32c0.3,0.38,0.6,0.76,0.9,1.14
				C28.91,1.86,29.52,2.94,30.25,3.73z"/>
			<path class="st5" d="M27.38-0.08l-0.4,0.32c-0.07-0.03-0.16-0.02-0.22,0.05c-0.1,0.13-0.16,0.3-0.24,0.45l-0.52,0.05
				c0.05-0.15,0.09-0.31,0.09-0.48c0-0.16-0.23-0.17-0.25-0.01l-0.52,0.09c0.11-0.73-0.41-1.34-0.82-1.92
				c-0.76-1.1-1.55-2.21-2.48-3.17c0,0,0,0-0.01-0.01c-0.05-0.09-0.15-0.15-0.28-0.14c-2.2,0.27-3.32,2.26-3.07,4.06l-0.73,0.09
				c-0.36-2.76,1.22-5.64,4.41-5.72C23.94-4.24,25.69-2.18,27.38-0.08z"/>
			<path class="st2" d="M26.98,0.25c0.06,0.03,0.1,0.09,0.07,0.17c-0.06,0.16-0.16,0.31-0.25,0.45c-0.09,0.15-0.19,0.3-0.29,0.45
				c-0.09,0.13-0.26,0.01-0.2-0.12c0.07-0.15,0.14-0.31,0.22-0.46c0.07-0.15,0.13-0.32,0.24-0.45C26.82,0.23,26.92,0.22,26.98,0.25z
				"/>
			<path class="st2" d="M25.85,0.31c0.02-0.16,0.25-0.15,0.25,0.01c0,0.16-0.03,0.32-0.09,0.48c-0.09,0.26-0.25,0.49-0.44,0.68
				c-0.09,0.09-0.22-0.05-0.13-0.14C25.69,1.04,25.8,0.7,25.85,0.31z"/>
			<path class="st2" d="M24.51-1.52c0.4,0.58,0.92,1.19,0.82,1.92c-0.01,0.06-0.02,0.12-0.04,0.19c-0.44,1.58-2.94,1.78-4.23,1.38
				c-1.45-0.45-2.21-1.55-2.38-2.74c-0.25-1.8,0.87-3.79,3.07-4.06c0.13-0.01,0.22,0.05,0.28,0.14c0,0,0.01,0,0.01,0.01
				C22.95-3.73,23.74-2.62,24.51-1.52z M24.05,1.18c0.99-0.64,0.58-1.67,0.03-2.47c-0.7-1.03-1.45-2.02-2.14-3.05
				c-0.03,0.01-0.05,0.02-0.08,0.03c-3.17,0.45-3.78,4.95-0.5,5.82C22.12,1.7,23.36,1.62,24.05,1.18z"/>
		</g>
		<g class="st1">
			<path class="st2" d="M89.33,15.34c0.07,0.21-0.22,0.37-0.32,0.16c-0.21-0.45-0.62-0.64-1.1-0.57c-0.16,0.02-0.27-0.22-0.1-0.29
				C88.39,14.42,89.13,14.76,89.33,15.34z"/>
			<g class="st6">
				<path class="st7" d="M90.04,15.6c0.17,0.57,0.64,1.8,0.2,2.35c-0.42,0.52-1.59,0.44-2.18,0.42c-0.05,0-0.08-0.02-0.11-0.04
					c-0.02,0.05-0.05,0.1-0.08,0.15c-0.21,0.29-0.61,0.52-0.88,0.29c-0.02,0.03-0.04,0.07-0.07,0.1c-0.27,0.33-0.67,0.36-0.98,0.12
					c-0.01,0-0.02,0-0.03,0c-0.02,0.07-0.06,0.12-0.15,0.14c-4.59,0.94-9.22,2.11-13.86,2.72c0,0-0.01,0-0.01,0
					c-0.05,0.06-0.12,0.1-0.22,0.07c-1.52-0.5-3.04-0.9-4.63-1.1c-0.18-0.02-0.29-0.25-0.13-0.38c1.21-1.01,2.39-2.1,3.68-2.99
					c0.01-0.07,0.08-0.14,0.15-0.11c0.02-0.01,0.04-0.03,0.06-0.04c0.07-0.05,0.14,0,0.16,0.06c2.2-0.68,4.53-1.05,6.79-1.5
					c2.29-0.46,4.61-0.98,6.94-1.27c0.38-0.26,0.7-0.27,0.99-0.13c0.3-0.33,0.79-0.35,1.19-0.13c0.05,0.03,0.09,0.05,0.13,0.08
					c0.59-0.28,1.53-0.89,2.18-0.5C89.7,14.24,89.88,15.07,90.04,15.6z M88.08,18.01c0.85-0.06,1.89,0.1,1.83-1.12
					c-0.02-0.44-0.18-0.91-0.31-1.33c-0.22-0.71-0.43-1.41-1.32-1.28c-0.34,0.05-0.71,0.23-1.05,0.36c0.36,0.41,0.47,1.02,0.57,1.54
					c0.1,0.53,0.35,1.25,0.25,1.84C88.06,18.01,88.07,18.01,88.08,18.01z M87.17,18.43c0.29,0.39,0.49-0.79,0.49-0.84
					c-0.01-0.19-0.05-0.38-0.08-0.56c-0.06-0.34-0.12-0.68-0.19-1.02c-0.14-0.73-0.61-1.82-1.5-1.4c0.58,0.46,0.94,1.55,1.07,2.17
					c0.1,0.42,0.26,1.09,0.16,1.62C87.14,18.4,87.16,18.42,87.17,18.43z M86.11,18.69c0.82,0.63,0.57-1.44,0.56-1.47
					c-0.04-0.25-0.09-0.5-0.16-0.74c-0.21-0.76-0.61-1.99-1.59-1.69c0,0.02,0,0.04,0,0.05c0.33,0.72,0.55,1.49,0.8,2.23
					c0.17,0.53,0.42,1.05,0.37,1.61C86.1,18.68,86.11,18.68,86.11,18.69z M85.67,18.75c0.01,0,0.02,0,0.03,0
					c0.04-0.32-0.03-0.66-0.13-0.99c-0.02,0.04-0.07,0.08-0.13,0.09c-4.54,0.88-9.09,1.84-13.67,2.54c-0.03,0.03-0.07,0.06-0.1,0.08
					c0.34,0.26,0.49,0.79,0.21,1.14c0,0.01,0.01,0.01,0.02,0.02C76.39,20.39,81.09,19.67,85.67,18.75z M85.35,17.44
					c0.04-0.01,0.08,0,0.11,0.01c-0.07-0.19-0.14-0.38-0.2-0.56c-0.07-0.22-0.14-0.45-0.22-0.67c-4.6,0.96-9.21,2.15-13.86,2.8
					c0,0-0.01,0.01-0.01,0.02c0.37,0.08,0.73,0.28,0.8,0.67c0.02,0.12,0.01,0.26-0.04,0.38C76.39,19.08,80.88,18.29,85.35,17.44z
					 M84.94,15.86c-0.09-0.29-0.17-0.58-0.23-0.87c-2.27,0.51-4.59,0.84-6.87,1.28c-2.24,0.44-4.48,1.03-6.74,1.34
					c0.3,0.31,0.38,0.76,0.24,1.16C75.79,17.55,80.42,16.8,84.94,15.86z M71.56,21.46c0.2-0.33,0.12-0.8-0.29-0.93
					c-0.08-0.03-0.09-0.13-0.05-0.19c0-0.09,0.07-0.18,0.18-0.19c0.21-0.01,0.29-0.3,0.21-0.47c-0.1-0.25-0.42-0.35-0.68-0.41
					c-0.17,0.06-0.35-0.17-0.19-0.32c0.4-0.37,0.4-0.92,0.01-1.27c-0.51,0.52-1.07,1.01-1.63,1.49c0.2,0.17,0.36,0.39,0.45,0.64
					c0.07,0.18,0.1,0.37,0.1,0.56c0,0.09-0.01,0.17-0.02,0.26c-0.01,0.03-0.03,0.08-0.04,0.13c0.03,0.03,0.05,0.07,0.05,0.11
					C70.32,21.04,70.95,21.23,71.56,21.46z M69.27,20.78c0.01-0.04,0.02-0.08,0.03-0.13c0.05-0.19,0.06-0.37,0.02-0.56
					c-0.05-0.3-0.19-0.54-0.38-0.75c-0.46,0.38-0.92,0.75-1.37,1.13C68.14,20.55,68.71,20.66,69.27,20.78z"/>
				<path class="st8" d="M89.91,16.88c0.06,1.22-0.98,1.06-1.83,1.12c-0.01,0-0.02,0.01-0.03,0.01c0.1-0.6-0.15-1.32-0.25-1.84
					c-0.1-0.52-0.21-1.12-0.57-1.54c0.34-0.13,0.71-0.31,1.05-0.36c0.89-0.13,1.1,0.58,1.32,1.28
					C89.73,15.97,89.89,16.45,89.91,16.88z M89.01,15.51c0.1,0.21,0.39,0.05,0.32-0.16c-0.21-0.59-0.94-0.93-1.52-0.69
					c-0.17,0.07-0.06,0.31,0.1,0.29C88.39,14.87,88.8,15.06,89.01,15.51z"/>
				<path class="st9" d="M87.66,17.59c0,0.05-0.19,1.23-0.49,0.84c-0.01-0.02-0.03-0.03-0.05-0.04c0.1-0.53-0.06-1.2-0.16-1.62
					c-0.14-0.62-0.49-1.71-1.07-2.17c0.89-0.41,1.35,0.67,1.5,1.4c0.07,0.34,0.13,0.68,0.19,1.02
					C87.61,17.21,87.65,17.4,87.66,17.59z"/>
				<path class="st9" d="M86.68,17.22c0,0.03,0.25,2.1-0.56,1.47c-0.01,0-0.01-0.01-0.02-0.01c0.05-0.55-0.2-1.08-0.37-1.61
					c-0.25-0.75-0.47-1.52-0.8-2.23c0-0.02,0-0.04,0-0.05c0.99-0.29,1.39,0.93,1.59,1.69C86.59,16.72,86.64,16.97,86.68,17.22z"/>
				<path class="st10" d="M85.7,18.74c-0.01,0-0.02,0-0.03,0c-4.58,0.92-9.28,1.64-13.78,2.88c0-0.01-0.01-0.01-0.02-0.02
					c0.28-0.35,0.13-0.88-0.21-1.14c0.04-0.02,0.07-0.05,0.1-0.08c4.58-0.7,9.13-1.65,13.67-2.54c0.06-0.01,0.11-0.05,0.13-0.09
					C85.67,18.08,85.74,18.42,85.7,18.74z M74.27,20.73c0.18-0.04,0.12-0.33-0.06-0.28c-0.64,0.14-1.28,0.31-1.91,0.49
					c-0.1,0.03-0.07,0.17,0.03,0.15C72.97,20.98,73.63,20.87,74.27,20.73z"/>
				<path class="st10" d="M85.47,17.46c-0.03-0.01-0.07-0.02-0.11-0.01c-4.47,0.85-8.97,1.63-13.4,2.66
					c0.05-0.12,0.06-0.26,0.04-0.38c-0.07-0.39-0.43-0.59-0.8-0.67c0-0.01,0.01-0.01,0.01-0.02c4.65-0.66,9.26-1.85,13.86-2.8
					c0.07,0.22,0.14,0.45,0.22,0.67C85.33,17.08,85.4,17.27,85.47,17.46z"/>
				<path class="st10" d="M84.71,14.99c0.06,0.29,0.14,0.58,0.23,0.87c-4.52,0.94-9.15,1.69-13.61,2.91
					c0.15-0.4,0.06-0.85-0.24-1.16c2.26-0.32,4.5-0.9,6.74-1.34C80.12,15.82,82.44,15.49,84.71,14.99z"/>
				<path class="st7" d="M74.2,20.44c0.18-0.04,0.24,0.24,0.06,0.28c-0.64,0.14-1.3,0.25-1.94,0.35c-0.1,0.01-0.13-0.13-0.03-0.15
					C72.92,20.75,73.56,20.58,74.2,20.44z"/>
				<path class="st11" d="M71.27,20.53c0.41,0.12,0.49,0.6,0.29,0.93c-0.62-0.23-1.24-0.42-1.88-0.58c0-0.04-0.02-0.09-0.05-0.11
					c0.01-0.05,0.04-0.11,0.04-0.13c0.01-0.09,0.02-0.17,0.02-0.26c0-0.19-0.03-0.38-0.1-0.56c-0.09-0.25-0.25-0.47-0.45-0.64
					c0.56-0.47,1.12-0.96,1.63-1.49c0.38,0.34,0.39,0.9-0.01,1.27c-0.16,0.14,0.01,0.38,0.19,0.32c0.26,0.06,0.57,0.16,0.68,0.41
					c0.07,0.17,0,0.46-0.21,0.47c-0.12,0.01-0.18,0.1-0.18,0.19C71.18,20.4,71.19,20.5,71.27,20.53z"/>
				<path class="st7" d="M69.3,20.65c-0.01,0.05-0.02,0.09-0.03,0.13c-0.56-0.13-1.13-0.23-1.7-0.31c0.46-0.38,0.92-0.75,1.37-1.13
					c0.19,0.21,0.32,0.45,0.38,0.75C69.36,20.28,69.35,20.47,69.3,20.65z"/>
			</g>
		</g>
		<g class="st1">
			<path class="st2" d="M54.03,21.15c-0.38-0.25-0.48-0.79-0.25-1.18c0.03-0.04,0.06-0.06,0.09-0.08c0.01-0.01,0.01-0.02,0.02-0.02
				c4.77-3.64,9.34-7.52,13.94-11.36c4.35-3.63,8.7-7.39,13.45-10.5c-0.08-0.06-0.13-0.18-0.05-0.29c3.17-4.43,9.67-7.66,14.45-3.58
				c0.18,0.16,0.1,0.42-0.15,0.43c-1.7,0.06-3.08,1.06-4.04,2.42c-0.65,0.93-1.01,2-1.6,2.96c-1.09,1.78-3.48,2.15-5.41,1.9
				c-0.02,0.09-0.12,0.13-0.2,0.11c-4.84,2.94-9.7,5.77-14.4,8.95c-4.91,3.33-9.8,6.7-14.69,10.06C55.17,21,55.13,21.01,55.08,21
				C54.83,21.3,54.36,21.37,54.03,21.15z M54.1,20.23c-0.1,0.21-0.04,0.49,0.17,0.61c0.19,0.11,0.42,0.06,0.59-0.05
				c0-0.05,0.03-0.1,0.08-0.13c4.81-3.29,9.6-6.61,14.43-9.87c1.79-1.21,3.6-2.46,5.44-3.67c-0.88-0.44-1.62-1.27-1.89-2.22
				c-1.67,1.33-3.32,2.68-4.96,4.05c-4.54,3.81-9.06,7.65-13.77,11.24C54.15,20.21,54.12,20.22,54.1,20.23z M73.25,4.63
				c0.43,0.98,0.98,1.7,1.88,2.28C78.04,5,81.04,3.2,84.18,1.78c-0.5-1.5-1.25-2.72-2.59-3.62c-0.02-0.01-0.03-0.02-0.04-0.04
				C78.77,0.28,75.99,2.44,73.25,4.63z M81.82-2.28c0.04,0.02,0.07,0.08,0.06,0.12c1.28,0.85,2.33,2.18,2.6,3.72
				c1.53,0.02,3.55-0.14,4.64-1.33c0.78-0.85,1.1-2.07,1.71-3.04c0.75-1.2,1.77-2.19,3.02-2.7c-0.08,0.01-0.17,0.02-0.25,0.03
				c0,0.01-0.01,0.02-0.03,0.03c-1.65,0.59-3.01,1.5-4.24,2.74c-0.1,0.09-0.22-0.06-0.14-0.15c1.02-1.16,2.33-2.01,3.77-2.53
				c-1.44,0.25-2.74,0.85-3.94,1.8c-0.11,0.09-0.26-0.07-0.15-0.17c1.53-1.32,3.49-2,5.51-1.93c0.06-0.02,0.11-0.03,0.16-0.05
				c-1.83-0.31-3.62-0.24-5.44,0.21c-0.13,0.03-0.17-0.17-0.04-0.2c1.83-0.49,3.73-0.53,5.57-0.14C92-7.28,89.21-6.92,86.83-5.12
				c-0.1,0.07-0.21-0.06-0.12-0.14c2.16-2.07,5.51-2.27,8-0.74c-1.9-1.25-4.3-1.55-6.51-0.95C85.55-6.22,83.48-4.4,81.82-2.28z"/>
			<path class="st12" d="M54.27,20.84c-0.21-0.12-0.26-0.4-0.17-0.61c0.03-0.01,0.06-0.02,0.08-0.04
				c4.72-3.59,9.23-7.43,13.77-11.24c1.64-1.37,3.29-2.72,4.96-4.05c0.27,0.95,1.01,1.78,1.89,2.22c-1.84,1.21-3.65,2.45-5.44,3.67
				c-4.83,3.26-9.62,6.58-14.43,9.87c-0.05,0.04-0.08,0.08-0.08,0.13C54.69,20.91,54.45,20.95,54.27,20.84z M62.98,14.55
				c-0.15,0.14,0.06,0.37,0.21,0.23c0.57-0.52,1.17-0.95,1.81-1.38c0.12-0.08,0.03-0.26-0.1-0.2C64.2,13.55,63.56,14.02,62.98,14.55
				z"/>
			<path class="st2" d="M63.19,14.78c-0.15,0.14-0.36-0.1-0.21-0.23c0.57-0.52,1.22-1,1.91-1.34c0.13-0.07,0.22,0.12,0.1,0.2
				C64.36,13.83,63.76,14.26,63.19,14.78z"/>
			<path class="st4" d="M75.12,6.91c-0.89-0.58-1.44-1.3-1.88-2.28c2.75-2.19,5.52-4.35,8.3-6.52c0.01,0.02,0.02,0.03,0.04,0.04
				c1.34,0.9,2.09,2.12,2.59,3.62C81.04,3.2,78.04,5,75.12,6.91z M77.86,1.4c-0.1,0.09,0.02,0.29,0.15,0.21
				c0.54-0.33,1.02-0.83,1.45-1.29c0.07-0.08-0.03-0.2-0.11-0.13C78.86,0.61,78.34,0.98,77.86,1.4z M78.03,1.78
				c-0.12,0.09,0.03,0.26,0.15,0.17c0.24-0.17,0.48-0.37,0.7-0.56c0.07-0.06-0.01-0.19-0.09-0.13C78.54,1.42,78.28,1.59,78.03,1.78z
				"/>
			<path class="st2" d="M78.01,1.61c-0.13,0.08-0.25-0.12-0.15-0.21c0.48-0.42,1-0.79,1.48-1.21c0.09-0.07,0.19,0.05,0.11,0.13
				C79.03,0.78,78.54,1.27,78.01,1.61z"/>
			<path class="st2" d="M78.19,1.95c-0.12,0.09-0.27-0.08-0.15-0.17c0.24-0.19,0.51-0.36,0.77-0.52c0.08-0.05,0.16,0.07,0.09,0.13
				C78.67,1.59,78.43,1.78,78.19,1.95z"/>
			<path class="st13" d="M81.87-2.16c0.01-0.05-0.02-0.1-0.06-0.12c1.66-2.11,3.73-3.93,6.38-4.66c2.21-0.61,4.61-0.3,6.51,0.95
				c-2.49-1.53-5.85-1.32-8,0.74c-0.09,0.08,0.03,0.21,0.12,0.14c2.38-1.8,5.17-2.16,7.81-0.76c-1.84-0.39-3.74-0.35-5.57,0.14
				c-0.13,0.03-0.09,0.23,0.04,0.2c1.83-0.45,3.61-0.51,5.44-0.21c-0.05,0.01-0.11,0.03-0.16,0.05c-2.02-0.07-3.98,0.61-5.51,1.93
				c-0.11,0.1,0.04,0.26,0.15,0.17c1.2-0.95,2.5-1.54,3.94-1.8c-1.44,0.52-2.76,1.37-3.77,2.53c-0.09,0.1,0.04,0.25,0.14,0.15
				c1.23-1.24,2.59-2.15,4.24-2.74c0.01-0.01,0.02-0.02,0.03-0.03c0.09-0.01,0.17-0.02,0.25-0.03c-1.26,0.51-2.27,1.49-3.02,2.7
				c-0.61,0.98-0.93,2.19-1.71,3.04c-1.09,1.19-3.11,1.35-4.64,1.33C84.2,0.02,83.16-1.31,81.87-2.16z"/>
		</g>
		<g class="st1">
			<path class="st2" d="M57.69-3.14c0.03,0.02,0.05,0.06,0.05,0.12c-0.27,4.81-0.55,9.62-0.82,14.44c-0.01,0.17-0.28,0.21-0.3,0.03
				c-0.6-4.79-0.96-9.68-0.62-14.5c-0.16-0.51,0.35-1.03,0.86-1C57.3-4.03,57.71-3.6,57.69-3.14z M57.4-3.04
				c0-0.34-0.17-0.7-0.55-0.74c-0.36-0.04-0.61,0.24-0.72,0.55c0,0.01,0.01,0.01,0,0.02c0.04,4.29,0.13,8.55,0.57,12.81
				c0.24-4.19,0.48-8.38,0.71-12.57C57.41-2.99,57.4-3.01,57.4-3.04z"/>
			<path class="st4" d="M56.86-3.78c0.38,0.05,0.55,0.4,0.55,0.74c0,0.03,0.01,0.05,0.02,0.07c-0.24,4.19-0.48,8.38-0.71,12.57
				c-0.44-4.26-0.53-8.52-0.57-12.81c0-0.01,0-0.01,0-0.02C56.24-3.54,56.49-3.83,56.86-3.78z M56.59-1.56
				c0.71,0.35,0.58-1.58,0.47-1.87c-0.03-0.07-0.12-0.07-0.17-0.03c-0.03-0.02-0.06-0.02-0.09,0c-0.27,0.29-0.39,0.64-0.43,1.03
				C56.35-2.17,56.3-1.7,56.59-1.56z M57.14,0.39c0.01-0.13-0.18-0.13-0.2-0.01c-0.08,0.52-0.12,1.06-0.12,1.58
				c0,0.06,0.09,0.08,0.11,0.02C57.03,1.46,57.1,0.92,57.14,0.39z"/>
			<path class="st2" d="M56.94,0.38c0.02-0.12,0.2-0.12,0.2,0.01c-0.04,0.53-0.11,1.07-0.21,1.59c-0.01,0.06-0.11,0.04-0.11-0.02
				C56.83,1.44,56.87,0.9,56.94,0.38z"/>
		</g>
		<g>
			<defs>
				<path id="SVGID_1_" d="M59.53,44.74c-1.18,1.02-3.75,2.39-5.05,2.98c-1.24,0.56-4.93,1.86-6.28,2.14
					c-1.23,0.25-3.18,0.67-4.66,0.71c-1.02,0.03-2.72-0.02-3.48-0.44c-0.43-0.23-1-0.02-2.41-0.36c-0.72-0.17-2.16-0.45-2.83-0.78
					c-0.54-0.26-1.62-0.63-2.15-0.88c-1.22-0.58-2.07-1.21-3.16-1.97c-1.34-0.94-1.99-2.51-2.67-4.12
					c-0.77-1.85-1.43-5.48-1.59-6.62c-0.16-1.19,0.07-1.88,0.4-2.63c-0.19-0.53-0.28-2.17,0.09-3.46c0.33-1.17,1.08-1.49,0.89-2.31
					c-0.44-1.94,0.18-2.6,0.91-3.76c-0.3-1.63,0.72-3.44,1.75-4.13c0.05-1,2.43-4.42,3.62-5.17c0.77-1.32,3.66-3.3,5.01-3.97
					c0.05-1.05,3.95-2.94,7.28-3.63c0.69-0.14,2.27-0.91,5.32-1.18c2.48-0.22,3.96-0.37,6.45-0.27c0.85,0.03,1.63,0.11,2.55,0.26
					c0.92,0.15,2.22,0.42,3.21,0.69c0.59,0.16,1.3,0.42,2.2,0.83c0.88,0.39,1.77,0.8,2.59,1.31c1.72,1.07,3.4,2.32,4.83,3.75
					c1.19,1.2,2.17,2.53,3.27,3.81c1.19,1.39,2.38,2.82,3.43,4.31c1.61,2.29,2.55,4.79,3.19,7.49c0.31,1.32,0.7,2.75,0.76,4.09
					c0.07,1.57,0.05,3.2,0,4.78c-0.04,1.35-0.53,2.66-0.82,3.97c-0.3,1.37-2.66,4.83-3.81,6.29c-0.49,0.61-1.19,1.08-1.63,1.73
					c-0.23,0.34-2.07,1.79-2.33,2.12c-0.39,0.49-1.24,1.03-1.7,1.44c-0.82,0.73-1.79,1.27-2.57,2.03c-0.57,0.55-1.25,0.83-1.9,1.28
					c-1.12,0.76-2.43,1.38-3.63,2c-0.78,0.41-1.67,0.75-2.49,1.07c-0.89,0.35-1.81,0.52-2.68,0.95c-0.66,0.32-1.23,0.65-1.98,0.76
					c-0.73,0.11-1.41,0.27-2.16,0.27c-0.64-0.01-1.54,0.18-2.15,0.01c-1.06-0.29-0.13-0.83,0.29-1.42c0.56-0.8,0.98-1.64,1.61-2.41
					c2.06-2.49,3.68-5.86,4.4-9.02c0.21-0.9,0.47-2.04,0.58-2.94L59.53,44.74z"/>
			</defs>
			<clipPath id="SVGID_2_">
				<use xlink:href="#SVGID_1_"  style="overflow:visible;"/>
			</clipPath>
			<g class="st14">
				<path class="st15" d="M-15.06,150.44c-1.61,2.37-4.44,2.37-6.59,0.72c-0.4-0.3-0.15-0.67-0.16-0.92s-0.21-0.32-0.17-0.54
					c2.19-11.26,13.93-13.74,19.35-22.92c3.09-5.23,2.52-11.51,1.47-17.18c-1.05-5.67-4.36-9.77-4.92-15.67
					c-0.85-8.9,3.44-15.64,11.94-18.9c4.82-1.84,9.86-1.35,14.89-0.97c1.93,0.15,4.61,0.89,6.35,0.47c3.85-0.93,6.9-3.47,10.05-5.28
					c2.62-1.51,4.26-2.6,5.92-5c-8.05-2.87-13.85-7.72-14.99-16.43c-1.75-4.86-1.92-9.69-2.35-14.78c0-0.04,0.01-0.06-0.01-0.1
					c-0.87-2.58-2.08-4.63-2.09-7.44c-0.68-2.03-0.55-3.69,1.13-5.12c0.05-0.04,0.11-0.02,0.12-0.05c0.29-0.54,0.57-0.99,1.06-1.36
					c0.29-2.18-0.27-3.76,1.58-5.31c-0.07-2.2,1.66-3.59,3.34-4.64c0.09-0.06-0.1-0.21-0.05-0.33c0.77-1.7,1.56-3.14,3.49-3.71
					c3.55-1.04,6.73,0.38,9.83,2.11c-0.6-0.83-1.23-1.66-1.84-2.48c-1.3-0.55-2.23-1.35-3.76-1.42c-1.53-0.07-3,0.51-4.21,1.56
					c-0.04,0.03-0.02,0.05-0.14,0.07c-0.12,0.02-0.7-0.09-0.45-0.43c1.74-2.26,4.27-2.88,6.98-2.1C40.62,2.18,40.5,2,40.4,1.87
					c-0.09-0.13-0.06-0.21-0.07-0.35c-0.01-0.14-0.22-0.61,0.15-0.64c2.03-0.19,2.94-1.25,5.1,0.75C56,11.3,60.9,25.71,63.65,39.74
					c0.59-0.04,1.11-0.3,1.72-0.26c-1.99-6.95-3.08-10.92-5.42-18.6c-1.74-5.74-4.87-19.91-14.03-19.42
					c-0.17,0.01-0.23-0.01-0.42-0.13s-0.26-0.58,0.08-0.71c2.26-0.87,4.05-0.5,6.04,0.74c0.08,0.05,0.14-0.12,0.25-0.15
					c1.86-0.46,3.34-0.34,4.98,0.68c0.04-0.31,0.27-0.56,0.59-0.52c2.36,0.32,4.17,1.27,5.77,3.02c0.06-0.25,0.21-0.43,0.5-0.37
					c2.47,0.51,4.28,1.61,5.87,3.58c0.12-0.09,0.27-0.14,0.42-0.03c2.53,1.81,4.53,3.97,5.63,6.88c2.68,7.12,3.19,14.06,3.45,21.56
					c1-2.06,1.81-4.17,2.46-6.37c-1.15-5.45-3.41-10.22-5.7-15.26c-0.26-0.57,0.5-1.05,0.83-0.52c2.78,4.49,4.84,9,6.11,14.12
					c0.27-0.05,0.57-0.01,0.7,0.26c0.92,1.91,1.4,3.81,1.46,5.93c0.24,0.03,0.43,0.11,0.48,0.39c0.47,2.65,0.4,5.22-0.19,7.85
					c0.24,0.1,0.48,0.25,0.43,0.57C83.3,56.88,73.69,65.78,59.51,66.68c-0.46,0.03-0.48-0.38-0.61-0.66
					c-2.7,0.61-5.04,0.57-7.64-0.41c-0.13-0.05-0.17-0.18-0.26-0.18c-1.41,0.01-2.91-0.15-4.28-0.22
					c-2.35,6.52-8.39,11.31-14.85,14.6c-3,1.53-8.15,2.41-12.11,2.06c-3.23-0.28-7.12-0.96-10.38-0.38
					c-7.77,1.37-9.73,9.47-8.34,15.5c2.71,11.71,6.96,19.08,2.73,30.49c-1.54,4.14-4.53,7.28-7.91,10.18
					c-4.43,3.8-9.36,6.37-10.85,12.49C-15.01,150.23-14.99,150.33-15.06,150.44z M-20.74,150.06c0.69,0.46,1.6,0.64,2.39,0.54
					c0.78-0.1,1.11-0.49,1.76-0.85c2.14-9.05,11.18-12.01,16.3-18.92c4.47-6.04,5.29-12.92,3.84-20.04
					c-1.13-5.57-4.33-10.34-4.96-16c-0.14-1.26-0.24-2.57-0.02-3.87c1.2-7.09,5.69-10.95,12.73-11.48
					c6.37-0.47,13.55,1.4,19.08-0.94C37,75.7,42.72,71.06,45.79,65.11c-0.41-0.05-0.91-0.11-1.2-0.14
					c-0.29-0.03-0.19-0.13-0.31-0.24c-0.12-0.11-0.43-0.15-0.49-0.21c-4.67,5.45-10.01,11.19-18.12,11.78
					c-5.24,0.39-13.58-1.78-19.54,0.51c-4.95,1.9-8.68,5.44-9.95,10.59c-1.03,4.16-0.52,7.82,0.71,11.61
					c2.98,9.15,5.93,16.86,2.95,26.39c-1.27,4.06-3.85,7.17-7.29,9.8c-5.69,4.35-11.85,6.96-13.25,14.7
					C-20.71,149.97-20.79,150.03-20.74,150.06z M53.86,64.91c7.04-0.07,13.04-4.04,18.71-8.12c6.88-4.94,11.07-11.01,12.02-19.58
					c-2.43,6.75-6.75,11.45-12.29,15.98C66.74,57.72,60.61,62.29,53.86,64.91z M46.79,64.1c9.24-0.33,15.27-4.93,22.63-10.52
					S83.41,41.34,83.1,31.31c-0.17,0.12-0.39,0.22-0.63,0.21C76.05,47.66,62.41,57.33,46.79,64.1z M45.22,63.61
					c0.07-0.07,0.13-0.12,0.22-0.17c0.87-0.44,1.77-0.81,2.64-1.26c-5.97-2.31-11.42-5.15-16.4-9.25c-0.54-0.45-1.07-1.12-1.55-1.65
					C33.29,57.5,38.87,61.04,45.22,63.61z M74.85,57.02c-3.96,3.02-8.59,5.82-13.16,8c10.96-2,18-8.37,22.15-18.59
					C81.5,50.72,78.8,54.01,74.85,57.02z M49.6,61.41c0.6-0.28,1.17-0.65,1.77-0.94c-6.78-4.35-13.02-7.93-18.56-14.2
					c-1.97-2.24-4.62-5.61-5.82-8.67c0.36,2.22,0.95,4.46,1.7,6.62c0.3-0.01,0.41,0.15,0.48,0.44c0.07,0.28,0,0.72,0.12,1
					c1.37,3.11,2.9,5.6,5.72,7.62c4.63,3.32,9.41,5.66,14.54,8.1C49.57,61.38,49.57,61.42,49.6,61.41z M52.76,59.58
					c0.03,0.02,0.02,0.07,0.06,0.05c0.45-0.2,0.84-0.54,1.33-0.73c-7.42-6.7-14.38-10.21-20.77-19.06
					c-1.45-2.01-6.94-8.86-8.51-11.95c2.21,7.38,5.97,14.47,11.4,19.74C41.69,52.91,46.99,55.38,52.76,59.58z M55.44,58.11
					c0.33-0.45,0.83-0.57,1.22-0.9c-13.9-10.24-24.6-19.23-31.87-35.05c-0.81,6.41,9.36,17.35,12.43,20.68
					C44,50.19,49.32,51.67,55.44,58.11z M55.69,54.14c0.81,0.69,1.61,1.4,2.41,2.1c1.33-0.9,2.66-1.82,3.97-2.75
					C59.96,53.81,57.83,54.06,55.69,54.14z M52.99,51.96c0.6,0.49,1.2,0.98,1.81,1.47c3.02-0.72,6.1-1.12,9.15-1.71
					c0.17-0.03,0.33,0.16,0.46,0.07c1.77-1.17,3.46-2.61,5.12-3.96C64.09,49.49,58.58,50.84,52.99,51.96z M48.97,48.87
					c1.02,0.72,1.99,1.51,2.99,2.26c6.01-1.86,12.1-3.36,18.17-5.02c0.37-0.1,0.68,0.09,0.85,0.42c0.85-0.8,1.66-1.64,2.47-2.48
					C65.15,45.13,57.04,46.61,48.97,48.87z M43.91,45.18c1.39,1.01,2.77,2.03,4.16,3.05c8.33-3.99,17-4.89,26.08-5.82
					c0.23-0.02,0.39,0.05,0.56,0.18c1.26-1.59,2.54-3.28,3.52-5c0.04-0.06-0.16-0.11-0.21-0.08c-0.45,0.32-1.29,0.28-1.67,0.75
					c-0.31,0.37-0.59,0.39-1.04,0.39c-0.75,0-1.33,0.55-2.05,0.66c-0.14,0.77-0.81,0.92-1.38,0.45
					C62.72,42.42,53.41,44.21,43.91,45.18z M41.94,43.7c0.04,0.03,0.12,0.02,0.11-0.03c-0.01-0.05-0.12-0.22-0.12-0.37
					c-0.09-3.94,1.82-7.54,3.58-10.99c-0.98-0.2-1.97-0.38-2.96-0.59c-0.59,1.48-1.14,2.76-1.71,4.29s-1.33,3.24-1.96,4.8
					c-0.04,0.09-0.27,0.13-0.2,0.2C39.67,41.9,40.85,42.87,41.94,43.7z M43.22,43.5c1.52-0.23,3.03-0.49,4.54-0.76
					c-0.17-0.17-0.28-0.32-0.25-0.57c0.38-3.02,1.13-5.89,2.21-8.73c-1.07-0.34-2.16-0.63-3.25-0.9
					C44.99,36.06,43.6,39.68,43.22,43.5z M48.61,42.58c1.09-0.16,2.28-0.41,3.4-0.62c-0.12-0.14-0.24-0.3-0.22-0.5
					c0.22-2.24,0.76-4.41,1.23-6.6c0.01-0.03,0.06-0.07,0.03-0.09c-0.8-0.4-1.66-0.74-2.52-1.05c-0.74,2.87-1.44,5.76-1.88,8.68
					C48.66,42.47,48.55,42.59,48.61,42.58z M52.84,41.81c0.94-0.18,1.88-0.36,2.82-0.54c0.17-1.44,0.5-2.81,0.94-4.19
					c-0.87-0.73-1.78-1.36-2.77-1.91C53.6,37.4,53.33,39.61,52.84,41.81z M56.76,41.06c0.66-0.17,1.59-0.22,2.16-0.43
					c0.14-0.05-0.02-0.46-0.16-0.55c-0.13-0.09-0.57-0.35-0.58-0.65c-0.01-0.31-0.1-0.73-0.15-0.93c-0.05-0.2-0.06,0-0.14-0.16
					c-0.09-0.16-0.37-0.37-0.5-0.54C57.11,38.88,56.9,39.96,56.76,41.06z M59.83,40.49c0.83-0.14,1.64-0.32,2.47-0.47
					c-1.48-7.13-3.43-13.79-6.34-20.54c-1.42-3.28-3.16-6.54-5.35-9.59c-0.91-1.27-1.53-2.29-2.96-3.64
					c-1.43-1.34-3.97-4.35-6.32-4.48c6.1,8.2,11.31,15.73,15.79,25.03c0.02,0.05,0,0.04,0.14,0.19c0.13,0.15,0.1,0.5,0.16,0.77
					c0.96,3.81,1.8,7.62,2.12,11.58c0,0.06-0.05,0.02,0,0.18C59.57,39.7,59.77,40.25,59.83,40.49z M66.6,39.17
					c0.64-0.15,1.28-0.28,1.94-0.4c-1.31-5.57-2.61-10.75-4.33-16.29c-1.15-3.71-2.35-7.56-3.85-11.36
					c-0.53-1.35-0.68-2.59-1.75-4.23c-1.07-1.65-3.76-4.57-6.15-4.81c2.24,1.99,4.47,6.08,5.48,8.55
					C61.88,20.27,64.53,29.24,66.6,39.17z M69.97,38.46c0.51-0.12,1.02-0.26,1.54-0.32c-1.09-6.02-2.51-10.63-3.99-16.85
					c-1.62-6.82-2.34-15.46-9.85-18.7c2.44,2.44,3.79,7.01,4.81,9.98C65.53,21.35,68.38,29.49,69.97,38.46z M73.08,37.76
					c0.5-0.15,1.11-0.24,1.56-0.42c0.11-0.04-0.03-0.3,0-0.35c0.02-0.06,0.02,0,0.02-0.05c-0.75-10.59-1.2-25.78-10.9-31.85
					c1.51,2.27,2.48,4.91,3.14,7.49C69.06,20.97,71.55,29.27,73.08,37.76z M76.27,36.95c0.44-0.11,0.89-0.24,1.33-0.37
					c-0.63-9.59-0.84-19.46-6.97-27.27c0.71,1.5,1.33,3.17,1.67,4.77C73.9,21.65,75.66,29.24,76.27,36.95z M36.91,38.07
					c0.44,0.76,0.82,1.57,1.29,2.31c0.88-3.05,2.19-5.93,3.52-8.8c-0.91-0.16-1.82-0.29-2.74-0.39c-0.74,2.09-1.32,4.24-1.8,6.39
					C37.14,37.81,37.08,37.93,36.91,38.07z M57.67,36.38c-0.24-1.24-0.52-2.46-0.81-3.68c-9.55-5.73-17.57-5.68-28.35-5.46
					c0.62,0.98,1.24,1.95,1.94,2.88c1.71-0.31,3.43-0.31,5.15-0.4c0.14-0.01,0.21,0,0.33,0c3.46,0.2,6.73,0.67,10.1,1.49
					c0.03,0.01,0.04,0.07,0.1,0c0.07-0.07-0.03-0.05,0.15-0.26c0.18-0.21,0.8-0.01,0.66,0.52c1.12,0.24,2.16,0.65,3.27,0.9
					c0.15,0.03,0.26,0.08,0.41,0.14C53.23,33.49,55.55,34.56,57.67,36.38z M34.83,34.9c0.61,0.86,1.21,1.73,1.76,2.63
					c0.28-2.24,0.87-4.29,1.62-6.41c-0.83-0.05-1.67-0.14-2.5-0.18c-0.36,1.17-0.54,2.38-0.64,3.59C35.05,34.72,35,34.82,34.83,34.9
					z M56.39,30.77c-0.37-0.8-0.36-1.95-0.85-2.65c-0.28-0.4-0.97-0.63-1.43-0.86c-3.2-1.61-7.24-3.39-10.59-4.03
					c-6.07-1.16-11.26,0.05-17.21-0.18c0.57,1.23,1.14,2.39,1.81,3.56C38.75,24.38,46.93,25.15,56.39,30.77z M34.38,34.38
					c0.04-1.21,0.25-2.33,0.66-3.47c-1.34-0.07-2.67-0.07-4.01-0.03C32.08,32.11,33.18,33.28,34.38,34.38z M55.02,26.43
					c-0.19-0.98-0.69-2.24-1.12-3.2c-0.06-0.12-0.26-0.01-0.41-0.07c-4.75-1.83-9.53-3.71-14.65-4.12
					c-3.98-0.32-10.17-0.57-13.21,2.26c0.08,0.25,0.2,0.5,0.26,0.73c4.76-0.39,8.73-1.23,13.72-0.95c2.75,0.15,5.58,0.76,8.98,2.01
					C49.04,23.27,54.04,25.71,55.02,26.43z M53.16,21.32c-0.43-1.02-0.92-2.02-1.4-3.01c-0.89,0.21-1.03-0.48-1.33-1.24
					c-2.39,0.87-13.17-3.27-14.28-3.29c-6.08-0.13-7.12,0.81-9.27,4.81c2.39-0.24,4.32-0.75,6.68-1
					C40.55,16.84,46.67,18.81,53.16,21.32z M50.45,15.89c-0.22-0.41-0.5-0.81-0.74-1.22c-6.65-3.29-14.39-8.02-20.64-1.78
					c0.66-0.21,1.18-0.46,1.88-0.56c4.58-0.69,8.34,0.13,12.85,1.38C45.84,14.27,48.46,14.89,50.45,15.89z M48.3,12.46
					c-0.94-1.37-1.98-2.67-3.03-3.95c-0.19,0.12-0.29,0.14-0.53,0.03c-4.53-2.22-9.04-4.37-12.85,0.09
					C37.93,7.32,43,9.77,48.3,12.46z"/>
				<path class="st16" d="M-18.35,150.6c-0.79,0.1-1.7-0.08-2.39-0.54c-0.05-0.03,0.03-0.09,0.04-0.16
					c1.39-7.73,7.57-10.36,13.25-14.7c3.43-2.62,6.04-5.76,7.29-9.8c2.94-9.49,0.09-17.29-2.97-26.37
					c-1.27-3.76-1.55-7.62-0.78-11.56c0.23,0.03,0.46,0.09,0.68,0.13c-0.19,1.1-0.28,2.19-0.04,3.28c0.11,0.49,0.58,0.39,0.76,0.02
					c0.35,0,0.69,0.01,1.04,0.02c-0.12,1.28-0.1,2.59,0.04,3.86c0.65,5.66,3.84,10.43,4.96,16c1.44,7.13,0.62,14.01-3.84,20.04
					c-5.11,6.91-14.15,9.87-16.29,18.92C-17.25,150.11-17.57,150.5-18.35,150.6z"/>
				<path class="st16" d="M-1.46,90.91c-0.25,0.15-0.87,0.14-1.01,0.02c-0.13-0.12,0-0.13,0-0.21c0.08-3.03,0.83-5.54,2.42-8.11
					c0.13-0.21-0.09-0.45-0.28-0.26c-1.47,1.49-2.35,3.24-2.9,5.27c-0.22-0.05-0.47-0.08-0.67-0.15c1.5-5.35,5-8.68,10.01-10.63
					c6.02-2.35,14.3-0.12,19.55-0.52c8.13-0.62,13.44-6.32,18.12-11.79c0.06,0.07,0.37,0.1,0.49,0.21c0.12,0.11,0.02,0.21,0.31,0.24
					c0.29,0.03,0.79,0.09,1.2,0.14C42.72,71.06,37,75.71,30.38,78.5c-5.54,2.34-12.7,0.48-19.09,0.94
					C4.24,79.96-0.19,83.84-1.46,90.91z"/>
				<path class="st16" d="M72.56,56.79c-5.66,4.07-11.67,8.05-18.7,8.12c6.75-2.62,12.89-7.19,18.43-11.72
					c5.55-4.53,9.86-9.22,12.29-15.98C83.64,45.78,79.43,51.85,72.56,56.79z"/>
				<path class="st16" d="M69.42,53.59c-7.36,5.58-13.39,10.19-22.63,10.51c15.62-6.77,29.26-16.44,35.67-32.58
					c0.24,0.01,0.46-0.09,0.63-0.21C83.41,41.33,76.77,48.01,69.42,53.59z"/>
				<path class="st16" d="M45.44,63.43c-0.09,0.05-0.15,0.1-0.22,0.17c-6.35-2.57-11.94-6.11-15.1-12.34
					c0.48,0.54,1.01,1.21,1.55,1.65c4.98,4.1,10.44,6.94,16.41,9.25C47.21,62.62,46.31,62.99,45.44,63.43z"/>
				<path class="st16" d="M61.69,65.02c4.56-2.18,9.2-4.99,13.16-8c3.96-3.02,6.66-6.3,8.99-10.59
					C79.69,56.65,72.65,63.03,61.69,65.02z"/>
				<path class="st16" d="M51.37,60.47c-0.6,0.29-1.18,0.66-1.77,0.94c-0.03,0.01-0.03-0.03-0.05-0.03
					c-5.13-2.44-9.9-4.78-14.54-8.1c-2.82-2.02-4.34-4.51-5.72-7.62c-0.12-0.28-0.05-0.72-0.12-1c-0.07-0.28-0.18-0.44-0.48-0.44
					c-0.75-2.16-1.34-4.4-1.7-6.62c1.2,3.05,3.85,6.43,5.82,8.67C38.36,52.55,44.6,56.12,51.37,60.47z"/>
				<path class="st16" d="M52.82,59.63c-0.04,0.02-0.03-0.03-0.06-0.05c-5.77-4.21-11.07-6.68-16.49-11.95
					c-5.43-5.27-9.19-12.36-11.4-19.74c1.58,3.08,7.05,9.95,8.51,11.95c6.41,8.85,13.34,12.36,20.78,19.06
					C53.66,59.09,53.27,59.43,52.82,59.63z"/>
				<path class="st16" d="M56.66,57.21c-0.39,0.33-0.89,0.45-1.22,0.9C49.32,51.66,44,50.19,37.22,42.84
					c-3.07-3.33-13.25-14.27-12.43-20.68C32.06,37.98,42.75,46.97,56.66,57.21z"/>
				<path class="st16" d="M58.11,56.24c-0.81-0.7-1.6-1.41-2.41-2.1c2.14-0.09,4.27-0.34,6.39-0.65
					C60.76,54.42,59.44,55.34,58.11,56.24z"/>
				<path class="st16" d="M54.8,53.43c-0.6-0.49-1.21-0.98-1.81-1.47c5.58-1.12,11.09-2.47,16.54-4.13
					c-1.66,1.35-3.36,2.79-5.12,3.96c-0.13,0.09-0.29-0.1-0.46-0.07C60.9,52.31,57.83,52.71,54.8,53.43z"/>
				<path class="st16" d="M51.96,51.13c-1-0.75-1.97-1.54-2.99-2.26c8.06-2.25,16.18-3.74,24.48-4.82
					c-0.81,0.84-1.62,1.68-2.47,2.48c-0.17-0.33-0.48-0.52-0.85-0.42C64.06,47.78,57.97,49.27,51.96,51.13z"/>
				<path class="st16" d="M48.07,48.23c-1.39-1.01-2.77-2.04-4.16-3.05c9.5-0.97,18.81-2.77,27.98-5.43
					c0.57,0.47,1.23,0.33,1.38-0.45c0.73-0.1,1.3-0.66,2.05-0.66c0.45,0,0.73-0.02,1.04-0.39c0.39-0.46,1.22-0.43,1.67-0.75
					c0.05-0.03,0.24,0.02,0.21,0.08c-0.98,1.73-2.26,3.42-3.52,5c-0.17-0.14-0.33-0.21-0.57-0.18
					C65.07,43.34,56.4,44.24,48.07,48.23z"/>
				<path class="st16" d="M42.05,43.67c0.01,0.05-0.07,0.06-0.11,0.03c-1.09-0.83-2.27-1.79-3.26-2.69c-0.07-0.07,0.16-0.1,0.2-0.2
					c0.63-1.56,1.39-3.27,1.96-4.8c0.57-1.54,1.12-2.81,1.71-4.29c0.98,0.2,1.97,0.38,2.96,0.59c-1.75,3.45-3.66,7.06-3.58,10.99
					C41.94,43.44,42.04,43.61,42.05,43.67z"/>
				<path class="st16" d="M47.76,42.74c-1.51,0.27-3.02,0.53-4.54,0.76c0.39-3.83,1.77-7.44,3.25-10.97
					c1.09,0.27,2.18,0.57,3.25,0.9c-1.07,2.85-1.83,5.72-2.21,8.73C47.48,42.43,47.59,42.58,47.76,42.74z"/>
				<path class="st16" d="M52.02,41.96c-1.12,0.21-2.31,0.46-3.4,0.62c-0.06,0.01,0.04-0.11,0.06-0.17
					c0.44-2.91,1.14-5.81,1.88-8.68c0.85,0.31,1.72,0.65,2.52,1.05c0.03,0.02-0.02,0.05-0.03,0.09c-0.48,2.19-1.01,4.36-1.23,6.6
					C51.78,41.66,51.89,41.82,52.02,41.96z"/>
				<path class="st16" d="M55.66,41.26c-0.94,0.18-1.88,0.37-2.82,0.54c0.49-2.19,0.76-4.41,0.99-6.65c0.99,0.55,1.9,1.18,2.77,1.91
					C56.16,38.45,55.82,39.82,55.66,41.26z"/>
				<path class="st16" d="M58.92,40.63c-0.56,0.21-1.5,0.25-2.16,0.43c0.14-1.1,0.35-2.18,0.63-3.26c0.13,0.17,0.41,0.38,0.5,0.54
					c0.09,0.16,0.1-0.04,0.14,0.16c0.05,0.2,0.14,0.62,0.15,0.93s0.44,0.57,0.58,0.65C58.89,40.17,59.05,40.58,58.92,40.63z"/>
				<path class="st16" d="M62.3,40.02c-0.83,0.15-1.64,0.33-2.47,0.47c-0.07-0.24-0.26-0.79-0.31-0.96c-0.05-0.17,0.01-0.12,0-0.18
					c-0.31-3.96-1.16-7.76-2.12-11.58c-0.07-0.27-0.03-0.63-0.16-0.77c-0.13-0.15-0.11-0.14-0.13-0.19
					C52.65,17.5,47.43,9.98,41.32,1.78c2.36,0.13,4.9,3.14,6.32,4.48c1.43,1.34,2.05,2.36,2.96,3.64c2.19,3.05,3.93,6.3,5.35,9.59
					C58.88,26.23,60.82,32.89,62.3,40.02z"/>
				<path class="st16" d="M65.37,39.47c-0.6-0.03-1.14,0.21-1.71,0.28C60.79,25.46,56.19,11.7,45.48,1.42
					c0.05-0.04-0.03-0.03,0.07-0.07c0.09-0.04,0.22,0.12,0.39,0.11c9.14-0.5,12.28,13.68,14.02,19.42
					C62.28,28.56,63.39,32.52,65.37,39.47z"/>
				<path class="st16" d="M68.53,38.77c-0.65,0.13-1.3,0.26-1.94,0.4c-2.06-9.93-4.71-18.9-8.67-28.54
					c-1.01-2.47-3.24-6.56-5.48-8.55c2.39,0.24,5.08,3.16,6.15,4.81s1.22,2.88,1.75,4.23c1.5,3.81,2.7,7.66,3.85,11.36
					C65.92,28.02,67.23,33.2,68.53,38.77z"/>
				<path class="st16" d="M71.51,38.13c-0.52,0.06-1.03,0.2-1.54,0.32c-1.59-8.97-4.45-17.1-7.48-25.9
					c-1.02-2.97-2.38-7.53-4.81-9.98c7.51,3.25,8.25,11.88,9.85,18.7C68.99,27.51,70.42,32.12,71.51,38.13z"/>
				<path class="st16" d="M74.64,37.34c-0.46,0.17-1.07,0.27-1.57,0.42c-1.53-8.49-4.03-16.79-6.18-25.17
					c-0.66-2.59-1.64-5.22-3.15-7.49c9.7,6.07,10.14,21.25,10.91,31.85c-0.03,0.03,0.01-0.01-0.02,0.05
					C74.61,37.04,74.75,37.3,74.64,37.34z"/>
				<path class="st16" d="M77.6,36.58c-0.44,0.13-0.88,0.25-1.33,0.37c-0.61-7.71-2.37-15.3-3.98-22.87
					c-0.34-1.6-0.96-3.27-1.67-4.77C76.76,17.11,76.96,26.99,77.6,36.58z"/>
				<path class="st16" d="M38.2,40.38c-0.47-0.74-0.85-1.55-1.29-2.31c0.17-0.14,0.23-0.26,0.28-0.49c0.47-2.15,1.06-4.3,1.8-6.39
					c0.92,0.11,1.83,0.23,2.74,0.39C40.4,34.45,39.09,37.34,38.2,40.38z"/>
				<path class="st16" d="M56.86,32.7c0.29,1.22,0.57,2.45,0.81,3.68c-2.12-1.82-4.44-2.89-7.03-3.87
					c-0.15-0.06-0.26-0.11-0.41-0.14c-1.11-0.25-2.16-0.66-3.27-0.9c0.14-0.52-0.48-0.72-0.66-0.52c-0.18,0.21-0.08,0.2-0.15,0.26
					c-0.06,0.06-0.07,0-0.1,0c-3.38-0.82-6.64-1.29-10.11-1.49c-0.13-0.01-0.2-0.01-0.33,0c-1.72,0.1-3.44,0.09-5.15,0.4
					c-0.7-0.93-1.33-1.89-1.94-2.88C39.29,27.02,47.31,26.97,56.86,32.7z"/>
				<path class="st16" d="M36.59,37.53c-0.55-0.9-1.15-1.77-1.76-2.63c0.16-0.08,0.22-0.18,0.23-0.38c0.1-1.21,0.28-2.42,0.64-3.59
					c0.84,0.04,1.67,0.13,2.5,0.18C37.47,33.24,36.87,35.29,36.59,37.53z"/>
				<path class="st16" d="M81.56,29.65c-0.66,2.2-1.46,4.31-2.47,6.37c-0.18-7.49-0.89-14.45-3.39-21.56
					c0.05-0.02,0.1-0.04,0.14-0.06C78.17,19.42,80.39,24.2,81.56,29.65z"/>
				<path class="st16" d="M55.54,28.12c0.48,0.7,0.48,1.86,0.84,2.65c-9.46-5.62-17.64-6.39-28.27-4.18
					c-0.66-1.16-1.23-2.33-1.81-3.56c5.94,0.23,11.14-0.98,17.21,0.18c3.36,0.64,7.39,2.42,10.59,4.03
					C54.57,27.49,55.26,27.71,55.54,28.12z"/>
				<path class="st16" d="M35.04,30.91c-0.41,1.14-0.63,2.26-0.66,3.47c-1.2-1.1-2.3-2.27-3.35-3.5
					C32.37,30.83,33.71,30.84,35.04,30.91z"/>
				<path class="st16" d="M53.9,23.24c0.44,0.96,0.93,2.22,1.12,3.2c-0.97-0.73-5.98-3.17-6.43-3.34c-3.39-1.25-6.23-1.86-8.98-2.01
					c-4.99-0.28-8.96,0.56-13.72,0.95c-0.05-0.24-0.18-0.48-0.26-0.73c3.04-2.84,9.23-2.59,13.21-2.26c5.11,0.42,9.9,2.3,14.65,4.13
					C53.64,23.23,53.84,23.11,53.9,23.24z"/>
				<path class="st16" d="M51.76,18.3c0.48,0.99,0.97,1.99,1.4,3.01c-6.49-2.51-12.61-4.48-19.61-3.73c-2.35,0.25-4.28,0.76-6.68,1
					c2.16-4.01,3.19-4.94,9.27-4.81c1.11,0.02,11.89,4.16,14.28,3.29C50.73,17.83,50.86,18.52,51.76,18.3z"/>
				<path class="st16" d="M49.71,14.67c0.24,0.41,0.52,0.82,0.74,1.22c-1.99-1-4.61-1.62-6.64-2.19c-4.52-1.25-8.27-2.07-12.85-1.38
					c-0.7,0.1-1.23,0.35-1.88,0.56C35.33,6.65,43.06,11.38,49.71,14.67z"/>
				<path class="st16" d="M45.27,8.51c1.05,1.28,2.09,2.58,3.03,3.95C43,9.77,37.93,7.32,31.89,8.63c3.81-4.46,8.32-2.31,12.85-0.09
					C44.98,8.66,45.08,8.63,45.27,8.51z"/>
				<path class="st16" d="M42.3,4.63c0.61,0.83,1.24,1.65,1.85,2.49C41,5.3,37.93,4.06,34.28,4.96c-0.02-0.03-0.08-0.07-0.06-0.11
					s0.08-0.04,0.12-0.07c1.2-1.05,2.68-1.63,4.21-1.56C40.07,3.28,41,4.09,42.3,4.63z"/>
			</g>
			<g class="st14">
				<path class="st15" d="M135.66,89.95c1.69,1.42,1.47,3.58,0.03,5.1c-0.26,0.28-0.52,0.06-0.72,0.05
					c-0.2-0.01-0.26,0.14-0.43,0.09c-8.45-2.56-9.43-11.74-16.03-16.61c-3.76-2.77-8.61-2.83-13.04-2.47
					c-4.42,0.36-7.82,2.57-12.38,2.54c-6.88-0.05-11.71-3.86-13.53-10.62c-1.03-3.83-0.26-7.66,0.42-11.48
					c0.26-1.47,1.04-3.46,0.86-4.82c-0.41-3.02-2.12-5.56-3.26-8.11c-0.95-2.12-1.66-3.46-3.36-4.93c-2.83,5.94-7,10-13.76,10.19
					c-3.86,0.96-7.57,0.71-11.5,0.64c-0.03,0-0.04-0.01-0.08,0c-2.05,0.46-3.71,1.23-5.86,1.01c-1.6,0.36-2.87,0.13-3.83-1.27
					c-0.03-0.04,0-0.08-0.03-0.1c-0.39-0.26-0.71-0.51-0.96-0.92c-1.64-0.39-2.9-0.09-3.94-1.63c-1.69-0.12-2.62-1.55-3.29-2.92
					c-0.04-0.07-0.17,0.06-0.25,0.01c-1.24-0.72-2.28-1.44-2.57-2.96c-0.52-2.8,0.82-5.12,2.39-7.36c-0.68,0.39-1.36,0.82-2.04,1.22
					c-0.52,0.96-1.21,1.6-1.38,2.77c-0.17,1.16,0.16,2.33,0.87,3.35c0.02,0.03,0.04,0.02,0.04,0.11c0.01,0.09-0.13,0.53-0.36,0.31
					c-1.59-1.51-1.87-3.5-1.07-5.51c-0.11,0.06-0.26,0.15-0.37,0.21c-0.11,0.06-0.17,0.03-0.27,0.03c-0.11,0-0.48,0.12-0.48-0.16
					c0.02-1.57-0.73-2.35,0.97-3.84c8.23-7.23,19.64-9.85,30.6-10.86c0.02-0.46-0.14-0.87-0.07-1.34c-5.48,0.98-8.6,1.5-14.67,2.69
					c-4.53,0.89-15.63,2.16-15.97,9.22c-0.01,0.13-0.02,0.18-0.13,0.31c-0.11,0.13-0.46,0.15-0.53-0.11
					c-0.49-1.8-0.07-3.14,1.04-4.57c0.04-0.05-0.08-0.12-0.1-0.2c-0.2-1.46,0-2.58,0.91-3.76c-0.23-0.05-0.41-0.25-0.35-0.49
					c0.43-1.78,1.3-3.09,2.77-4.18c-0.19-0.07-0.31-0.19-0.24-0.41c0.59-1.85,1.56-3.15,3.2-4.21c-0.06-0.1-0.09-0.22,0.01-0.33
					c1.58-1.79,3.39-3.16,5.71-3.77c5.66-1.49,11.02-1.34,16.78-0.95c-1.5-0.93-3.05-1.71-4.68-2.38
					c-4.26,0.45-8.09,1.81-12.13,3.17C38.16,9.83,37.85,9.21,38.28,9c3.66-1.77,7.27-3,11.29-3.58c-0.02-0.21,0.04-0.43,0.26-0.51
					c1.54-0.56,3.03-0.77,4.66-0.65c0.05-0.18,0.12-0.32,0.34-0.34c2.07-0.15,4.03,0.1,6,0.76c0.09-0.18,0.23-0.35,0.47-0.29
					c10.45,2.9,16.51,10.96,16.09,21.89c-0.01,0.35-0.33,0.34-0.55,0.42c0.25,2.11,0.04,3.9-0.91,5.82
					c-0.05,0.09-0.15,0.11-0.16,0.19c-0.1,1.08-0.34,2.22-0.5,3.26c4.81,2.31,8,7.31,10.01,12.52c0.93,2.42,1.21,6.43,0.63,9.44
					c-0.47,2.45-1.29,5.38-1.11,7.92c0.44,6.06,6.49,8.2,11.21,7.6c9.18-1.16,15.16-3.83,23.56,0.29c3.05,1.5,5.22,4.04,7.18,6.86
					c2.56,3.69,4.15,7.66,8.72,9.28C135.51,89.9,135.59,89.89,135.66,89.95z M134.93,94.27c0.4-0.49,0.62-1.18,0.6-1.78
					c-0.02-0.61-0.29-0.89-0.51-1.41c-6.76-2.35-8.32-9.51-13.21-13.96c-4.27-3.89-9.48-5.06-15.05-4.51
					c-4.35,0.43-8.26,2.5-12.64,2.54c-0.98,0.01-1.99-0.02-2.96-0.29c-5.33-1.48-7.94-5.21-7.79-10.65
					c0.14-4.92,2.13-10.26,0.77-14.69c-1.62-5.28-4.73-10.03-9.04-12.85c-0.07,0.31-0.15,0.69-0.2,0.91
					c-0.04,0.22-0.11,0.13-0.21,0.22c-0.1,0.09-0.15,0.32-0.2,0.36c3.81,4,7.78,8.54,7.6,14.79c-0.12,4.04-2.43,10.26-1.14,15.01
					c1.07,3.94,3.48,7.07,7.33,8.45c3.11,1.11,5.95,1.01,8.95,0.36c7.24-1.57,13.38-3.22,20.44-0.19c3.01,1.29,5.19,3.51,6.93,6.35
					c2.89,4.7,4.4,9.62,10.22,11.3C134.86,94.24,134.9,94.31,134.93,94.27z M75.57,30.48c0.5-5.4-2.07-10.3-4.75-14.96
					c-3.25-5.65-7.57-9.34-14.05-10.74c4.98,2.39,8.24,6.06,11.27,10.66C71.08,20.05,74.1,25.1,75.57,30.48z M74.4,35.83
					c0.47-7.1-2.58-12.08-6.28-18.15C64.42,11.6,59.83,6,52.13,5.46c0.08,0.14,0.14,0.32,0.11,0.5
					C64.1,12.13,70.44,23.34,74.4,35.83z M73.9,36.99c-0.05-0.06-0.08-0.11-0.11-0.18c-0.27-0.7-0.48-1.42-0.76-2.12
					c-2.24,4.39-4.84,8.34-8.37,11.84c-0.38,0.38-0.94,0.73-1.39,1.06C68.28,45.65,71.43,41.65,73.9,36.99z M71.18,13.79
					c2,3.27,3.78,7.04,5.1,10.7c-0.67-8.55-5-14.44-12.5-18.41C66.87,8.2,69.18,10.52,71.18,13.79z M72.56,33.46
					c-0.17-0.48-0.4-0.95-0.58-1.43c-3.86,4.85-7.09,9.35-12.33,13.1c-1.87,1.34-4.66,3.1-7.09,3.78c1.72-0.1,3.49-0.38,5.2-0.78
					c0.02-0.23,0.15-0.3,0.37-0.33c0.22-0.03,0.55,0.06,0.78-0.01c2.49-0.81,4.51-1.78,6.28-3.78c2.9-3.29,5.07-6.76,7.34-10.5
					C72.53,33.49,72.56,33.49,72.56,33.46z M71.41,30.9c0.02-0.02,0.05-0.01,0.04-0.04c-0.12-0.36-0.35-0.69-0.45-1.08
					C65.28,34.94,62.05,40,54.77,44.2c-1.65,0.95-7.33,4.62-9.82,5.58c5.83-1.11,11.55-3.44,16.01-7.18
					C65.43,38.85,67.73,34.99,71.41,30.9z M70.49,28.74c-0.32-0.29-0.37-0.68-0.6-1.01c-8.93,9.84-16.65,17.33-29.34,21.66
					c4.84,1.13,14.02-5.81,16.81-7.9C63.53,36.87,65.07,32.91,70.49,28.74z M67.47,28.23c0.59-0.57,1.2-1.12,1.8-1.68
					c-0.59-1.09-1.19-2.18-1.79-3.26C67.55,24.93,67.57,26.58,67.47,28.23z M65.59,30.13c0.42-0.42,0.84-0.85,1.27-1.27
					c-0.31-2.37-0.38-4.76-0.59-7.14c-0.01-0.13,0.15-0.24,0.09-0.35c-0.76-1.44-1.73-2.85-2.63-4.23
					C64.57,21.44,65.17,25.76,65.59,30.13z M62.9,32.96c0.63-0.72,1.31-1.41,1.97-2.11c-0.95-4.75-1.62-9.53-2.42-14.31
					c-0.05-0.29,0.12-0.51,0.39-0.62c-0.55-0.71-1.12-1.4-1.7-2.08C61.31,20.28,61.81,26.61,62.9,32.96z M59.69,36.55
					c0.88-0.99,1.77-1.96,2.66-2.95c-2.4-6.69-2.41-13.4-2.41-20.43c0-0.18,0.07-0.29,0.18-0.42c-1.11-1.09-2.31-2.2-3.56-3.09
					c-0.05-0.03-0.1,0.11-0.08,0.15c0.21,0.37,0.12,1.01,0.44,1.34c0.26,0.26,0.25,0.48,0.22,0.83c-0.06,0.58,0.32,1.06,0.34,1.62
					c0.58,0.17,0.64,0.69,0.23,1.09C59.04,21.93,59.69,29.2,59.69,36.55z M58.39,37.94c0.03-0.03,0.03-0.09-0.01-0.09
					c-0.04,0.01-0.18,0.07-0.29,0.06c-3.02-0.24-5.63-1.99-8.14-3.6c-0.23,0.74-0.45,1.48-0.68,2.22c1.09,0.57,2.02,1.09,3.15,1.65
					s2.38,1.27,3.52,1.88c0.07,0.04,0.08,0.22,0.14,0.17C56.84,39.54,57.67,38.71,58.39,37.94z M58.34,36.95
					c-0.05-1.18-0.14-2.36-0.23-3.54c-0.14,0.12-0.26,0.19-0.46,0.15c-2.28-0.52-4.42-1.33-6.52-2.37c-0.34,0.8-0.65,1.6-0.95,2.42
					C52.78,35.01,55.45,36.36,58.34,36.95z M58.06,32.74c-0.03-0.85-0.13-1.78-0.21-2.65c-0.12,0.08-0.25,0.16-0.4,0.13
					c-1.7-0.35-3.32-0.92-4.95-1.46c-0.02-0.01-0.05-0.05-0.06-0.03c-0.37,0.58-0.7,1.22-1,1.85c2.14,0.79,4.3,1.55,6.5,2.12
					C57.98,32.7,58.06,32.79,58.06,32.74z M57.8,29.45c-0.06-0.73-0.13-1.47-0.2-2.2c-1.09-0.24-2.11-0.61-3.14-1.05
					c-0.62,0.61-1.18,1.26-1.68,1.97C54.48,28.52,56.16,28.9,57.8,29.45z M57.54,26.39c-0.08-0.52-0.04-1.24-0.16-1.69
					c-0.03-0.11-0.36-0.02-0.43,0.08s-0.31,0.41-0.55,0.39c-0.24-0.02-0.57,0.02-0.72,0.04c-0.16,0.02,0,0.04-0.13,0.1
					c-0.13,0.06-0.31,0.25-0.45,0.34C55.89,25.95,56.7,26.2,57.54,26.39z M57.34,23.99c-0.04-0.65-0.12-1.28-0.17-1.93
					c-5.58,0.57-10.83,1.54-16.22,3.25c-2.63,0.83-5.25,1.91-7.76,3.35c-1.04,0.6-1.88,0.99-3.02,1.98
					c-1.14,0.99-3.64,2.7-3.93,4.49C33,31.1,39.18,27.7,46.65,25c0.04-0.01,0.03,0,0.16-0.09c0.12-0.09,0.39-0.03,0.6-0.06
					c3-0.43,5.97-0.78,9.03-0.71c0.04,0,0.01,0.04,0.14,0.02C56.71,24.13,57.15,24.02,57.34,23.99z M56.86,18.71
					c-0.06-0.5-0.11-1.01-0.16-1.51c-4.36,0.56-8.43,1.16-12.81,2.04c-2.93,0.59-5.97,1.21-9,2.06c-1.08,0.3-2.03,0.32-3.38,1.01
					c-1.34,0.69-3.79,2.52-4.16,4.34c1.7-1.56,5.01-2.94,6.98-3.53C42.02,20.84,49.09,19.51,56.86,18.71z M56.58,16.07
					c-0.05-0.4-0.12-0.8-0.13-1.21c-4.69,0.37-8.33,1.09-13.21,1.73c-5.35,0.7-12.02,0.58-15.09,6.08c2.06-1.68,5.66-2.35,8.02-2.9
					C43.13,18.13,49.58,16.58,56.58,16.07z M56.29,13.63c-0.08-0.39-0.1-0.87-0.2-1.23c-0.02-0.09-0.23,0-0.27-0.02
					c-0.04-0.02,0-0.02-0.04-0.02c-8.17-0.26-19.83-1.1-25.24,5.85c1.85-0.98,3.95-1.51,5.99-1.82
					C43.11,15.4,49.67,14.14,56.29,13.63z M55.91,11.12c-0.05-0.35-0.11-0.7-0.18-1.05c-7.39-0.27-14.97-0.88-21.43,3.2
					c1.21-0.43,2.53-0.77,3.78-0.91C44.01,11.74,49.97,10.99,55.91,11.12z M53.69,41.35c0.62-0.28,1.27-0.5,1.87-0.81
					c-2.26-0.92-4.37-2.14-6.46-3.39c-0.19,0.68-0.36,1.37-0.52,2.07c1.54,0.73,3.14,1.34,4.75,1.88
					C53.51,41.16,53.6,41.21,53.69,41.35z M54.02,25.32c-0.97,0.09-1.92,0.2-2.88,0.33c-5.13,6.86-5.72,13.01-6.4,21.28
					c0.8-0.4,1.59-0.8,2.36-1.26c-0.1-1.33,0.03-2.65,0.09-3.98c0.01-0.11,0.01-0.16,0.03-0.26c0.42-2.64,1.04-5.1,1.93-7.62
					c0.01-0.02,0.06-0.02,0.01-0.08c-0.04-0.06-0.04,0.02-0.19-0.13c-0.14-0.15,0.06-0.61,0.45-0.47c0.27-0.84,0.67-1.61,0.95-2.44
					c0.04-0.11,0.08-0.19,0.14-0.3C51.46,28.5,52.47,26.81,54.02,25.32z M51.1,42.69c0.71-0.4,1.42-0.79,2.15-1.14
					c-1.69-0.39-3.21-1.01-4.78-1.74c-0.1,0.64-0.24,1.26-0.34,1.9c0.87,0.37,1.78,0.6,2.7,0.77C50.98,42.51,51.05,42.56,51.1,42.69
					z M49.63,25.87c-0.64,0.22-1.52,0.12-2.1,0.44c-0.33,0.18-0.56,0.69-0.77,1.03c-1.48,2.33-3.16,5.28-3.92,7.8
					c-1.36,4.56-0.84,8.63-1.49,13.16c0.99-0.34,1.92-0.69,2.87-1.1C43.36,38.87,44.59,32.67,49.63,25.87z M50.67,43
					c-0.92-0.12-1.77-0.38-2.61-0.78c-0.16,1.02-0.27,2.04-0.34,3.07C48.75,44.59,49.73,43.83,50.67,43z M46.2,26.58
					c-0.77,0.07-1.77,0.35-2.54,0.61c-0.1,0.03-0.03,0.2-0.09,0.31c-1.77,3.5-3.59,7.01-4.31,10.89c-0.56,3.02-1.24,7.74,0.7,10.29
					c0.2-0.04,0.4-0.12,0.58-0.14c0.07-3.68-0.26-6.78,0.35-10.58c0.33-2.09,1.02-4.21,2.25-6.72C43.3,30.91,45.57,27.26,46.2,26.58
					z M42.14,27.6c-0.81,0.25-1.62,0.55-2.42,0.84c0.09,0.7-0.45,0.75-1.05,0.92c0.48,1.9-3.53,9.83-3.64,10.68
					c-0.57,4.64,0.06,5.51,2.96,7.48c0-1.85-0.23-3.37-0.24-5.19C37.72,36.91,39.7,32.37,42.14,27.6z M37.77,29.24
					c-0.33,0.14-0.66,0.32-0.99,0.47c-3.04,4.84-7.27,10.39-2.98,15.67c-0.11-0.52-0.26-0.94-0.28-1.49
					c-0.17-3.56,0.75-6.37,2.07-9.73C36.17,32.65,36.85,30.69,37.77,29.24z M34.97,30.62c-1.12,0.61-2.2,1.31-3.26,2.01
					c0.08,0.16,0.09,0.23-0.02,0.41c-2.06,3.29-4.05,6.58-0.94,9.85C30.23,38.17,32.5,34.47,34.97,30.62z"/>
				<path class="st16" d="M135.53,92.49c0.02,0.61-0.2,1.29-0.6,1.78c-0.03,0.04-0.07-0.03-0.12-0.04
					c-5.81-1.67-7.34-6.61-10.22-11.29c-1.74-2.83-3.94-5.07-6.93-6.35c-7.04-3-13.23-1.43-20.42,0.21
					c-2.98,0.68-5.96,0.59-8.91-0.31c0.04-0.17,0.1-0.34,0.16-0.51c0.83,0.23,1.66,0.39,2.51,0.28c0.38-0.05,0.35-0.42,0.08-0.58
					c0.03-0.27,0.06-0.53,0.09-0.79c0.97,0.19,1.98,0.28,2.96,0.27c4.39-0.05,8.29-2.12,12.64-2.55c5.57-0.55,10.78,0.62,15.05,4.51
					c4.89,4.45,6.45,11.61,13.21,13.96C135.24,91.6,135.51,91.88,135.53,92.49z"/>
				<path class="st16" d="M91.14,74.87c0.09,0.21,0.04,0.68-0.06,0.77c-0.1,0.09-0.1-0.01-0.16-0.02c-2.32-0.3-4.18-1.07-6.02-2.49
					c-0.15-0.12-0.35,0.03-0.22,0.19c1.03,1.24,2.3,2.06,3.8,2.64c-0.06,0.16-0.1,0.35-0.17,0.5c-3.98-1.57-6.25-4.51-7.35-8.5
					c-1.32-4.8,1.03-10.96,1.13-15.01c0.16-6.27-3.79-10.78-7.61-14.8c0.06-0.04,0.11-0.27,0.2-0.36c0.1-0.09,0.16,0,0.21-0.22
					c0.04-0.22,0.13-0.6,0.2-0.91c4.31,2.82,7.42,7.57,9.04,12.85c1.36,4.42-0.63,9.77-0.77,14.69
					C83.21,69.65,85.83,73.35,91.14,74.87z"/>
				<path class="st15" d="M91.1,75.69c0.15,0.08,0.3,0.54-0.1,0.56c-0.89,0.05-1.66,0-2.52-0.3c-1.49-0.53-2.78-1.41-3.8-2.62
					c-0.13-0.16,0.07-0.31,0.22-0.19c1.85,1.43,3.7,2.18,6.03,2.5C90.98,75.65,90.94,75.61,91.1,75.69z"/>
				<path class="st16" d="M70.82,15.52c2.68,4.65,5.25,9.56,4.75,14.96c-1.48-5.38-4.5-10.43-7.53-15.03
					c-3.03-4.6-6.29-8.28-11.27-10.66C63.25,6.17,67.58,9.87,70.82,15.52z"/>
				<path class="st16" d="M68.12,17.68c3.7,6.07,6.75,11.05,6.28,18.15C70.44,23.34,64.1,12.13,52.25,5.96
					c0.03-0.19-0.03-0.36-0.11-0.5C59.83,6,64.42,11.61,68.12,17.68z"/>
				<path class="st16" d="M73.78,36.81c0.03,0.07,0.06,0.12,0.11,0.18c-2.46,4.66-5.61,8.66-10.63,10.6c0.45-0.33,1-0.68,1.39-1.06
					c3.53-3.5,6.13-7.45,8.37-11.84C73.3,35.39,73.51,36.11,73.78,36.81z"/>
				<path class="st16" d="M76.27,24.49c-1.31-3.66-3.1-7.43-5.1-10.7c-2-3.27-4.31-5.59-7.4-7.71
					C71.27,10.05,75.6,15.94,76.27,24.49z"/>
				<path class="st16" d="M71.98,32.03c0.18,0.48,0.41,0.95,0.58,1.43c0.01,0.02-0.02,0.02-0.03,0.04
					c-2.27,3.74-4.44,7.21-7.34,10.5c-1.77,2-3.79,2.97-6.28,3.78c-0.22,0.07-0.55-0.02-0.78,0.01c-0.22,0.03-0.35,0.11-0.37,0.33
					c-1.71,0.4-3.47,0.68-5.2,0.78c2.43-0.68,5.23-2.44,7.09-3.78C64.89,41.38,68.12,36.88,71.98,32.03z"/>
				<path class="st16" d="M71.45,30.86c0.01,0.03-0.02,0.02-0.04,0.04c-3.68,4.09-5.98,7.95-10.44,11.69
					c-4.46,3.74-10.18,6.07-16.01,7.18c2.48-0.97,8.17-4.62,9.82-5.58c7.28-4.21,10.51-9.25,16.22-14.42
					C71.1,30.18,71.33,30.5,71.45,30.86z"/>
				<path class="st16" d="M69.89,27.73c0.23,0.33,0.27,0.71,0.6,1.01c-5.41,4.18-6.96,8.14-13.12,12.76
					c-2.79,2.09-11.97,9.02-16.81,7.9C53.24,45.06,60.96,37.57,69.89,27.73z"/>
				<path class="st16" d="M69.27,26.54c-0.6,0.56-1.2,1.12-1.8,1.68c0.1-1.65,0.08-3.29,0-4.94C68.08,24.37,68.68,25.45,69.27,26.54
					z"/>
				<path class="st16" d="M66.85,28.86c-0.42,0.42-0.84,0.85-1.27,1.27c-0.42-4.36-1.02-8.69-1.87-12.99
					c0.91,1.38,1.87,2.79,2.63,4.23c0.06,0.11-0.1,0.21-0.09,0.35C66.48,24.1,66.54,26.48,66.85,28.86z"/>
				<path class="st16" d="M64.87,30.85c-0.66,0.7-1.33,1.39-1.97,2.11c-1.09-6.35-1.6-12.68-1.77-19.12
					c0.58,0.68,1.16,1.37,1.7,2.08c-0.26,0.11-0.44,0.33-0.39,0.62C63.25,21.32,63.92,26.1,64.87,30.85z"/>
				<path class="st16" d="M62.34,33.6c-0.88,0.98-1.78,1.96-2.66,2.95c0-7.35-0.64-14.62-1.97-21.85c0.41-0.4,0.35-0.92-0.23-1.09
					c-0.02-0.56-0.4-1.05-0.34-1.62c0.04-0.35,0.04-0.56-0.22-0.83c-0.32-0.33-0.23-0.97-0.44-1.34c-0.02-0.04,0.03-0.19,0.08-0.15
					c1.24,0.89,2.44,2,3.56,3.09c-0.12,0.12-0.18,0.24-0.18,0.42C59.93,20.2,59.94,26.91,62.34,33.6z"/>
				<path class="st16" d="M58.38,37.85c0.04-0.01,0.04,0.06,0.01,0.09c-0.72,0.77-1.55,1.6-2.31,2.29
					c-0.06,0.05-0.07-0.13-0.14-0.17c-1.15-0.6-2.39-1.32-3.52-1.88c-1.13-0.56-2.06-1.08-3.15-1.65c0.23-0.74,0.45-1.48,0.68-2.22
					c2.51,1.61,5.12,3.36,8.14,3.6C58.2,37.92,58.34,37.86,58.38,37.85z"/>
				<path class="st16" d="M58.12,33.41c0.09,1.18,0.17,2.36,0.23,3.54c-2.9-0.59-5.56-1.94-8.15-3.35c0.3-0.81,0.61-1.62,0.95-2.42
					c2.1,1.04,4.24,1.85,6.52,2.37C57.85,33.6,57.98,33.53,58.12,33.41z"/>
				<path class="st16" d="M57.86,30.09c0.07,0.87,0.17,1.8,0.21,2.65c0,0.05-0.08-0.04-0.13-0.06c-2.2-0.56-4.36-1.33-6.5-2.12
					c0.3-0.63,0.63-1.26,1-1.85c0.02-0.02,0.04,0.02,0.06,0.03c1.64,0.54,3.26,1.12,4.95,1.46C57.61,30.25,57.74,30.17,57.86,30.09z
					"/>
				<path class="st16" d="M57.61,27.25c0.07,0.73,0.14,1.47,0.2,2.2c-1.64-0.55-3.32-0.93-5.01-1.28c0.5-0.72,1.05-1.36,1.68-1.97
					C55.49,26.64,56.51,27.01,57.61,27.25z"/>
				<path class="st16" d="M57.38,24.7c0.12,0.45,0.08,1.17,0.16,1.68c-0.84-0.19-1.64-0.44-2.44-0.74c0.14-0.09,0.33-0.28,0.45-0.34
					c0.13-0.06-0.02-0.08,0.13-0.1c0.16-0.02,0.49-0.06,0.72-0.04c0.24,0.02,0.47-0.29,0.55-0.39
					C57.02,24.68,57.35,24.59,57.38,24.7z"/>
				<path class="st16" d="M57.17,22.06c0.05,0.65,0.12,1.28,0.17,1.93c-0.19,0.03-0.63,0.14-0.76,0.16
					c-0.13,0.02-0.09-0.02-0.14-0.02c-3.06-0.07-6.04,0.28-9.03,0.71c-0.21,0.03-0.48-0.02-0.6,0.07C46.69,25,46.69,24.98,46.65,25
					c-7.48,2.69-13.65,6.1-20.4,10.13c0.28-1.8,2.79-3.5,3.93-4.49c1.14-0.99,1.97-1.38,3.02-1.98c2.5-1.44,5.13-2.52,7.76-3.35
					C46.35,23.6,51.6,22.63,57.17,22.06z"/>
				<path class="st16" d="M56.99,19.67c-0.07,0.46,0.07,0.89,0.08,1.33c-11.17,1.08-22.07,3.52-30.78,10.92
					c-0.03-0.04-0.03,0.02-0.05-0.06c-0.02-0.07,0.11-0.16,0.11-0.29c0.33-7.03,11.44-8.33,15.97-9.21
					C48.4,21.18,51.51,20.64,56.99,19.67z"/>
				<path class="st16" d="M56.7,17.19c0.05,0.51,0.09,1.01,0.16,1.51c-7.77,0.8-14.84,2.13-22.53,4.4
					c-1.97,0.58-5.28,1.97-6.98,3.53c0.37-1.81,2.82-3.64,4.16-4.34c1.34-0.69,2.3-0.71,3.38-1.01c3.03-0.85,6.08-1.47,9-2.06
					C48.27,18.35,52.34,17.76,56.7,17.19z"/>
				<path class="st16" d="M56.45,14.86c0.01,0.41,0.07,0.81,0.13,1.21c-7,0.51-13.44,2.07-20.42,3.7c-2.35,0.55-5.95,1.23-8.02,2.9
					c3.08-5.49,9.74-5.38,15.09-6.08C48.12,15.96,51.76,15.22,56.45,14.86z"/>
				<path class="st16" d="M56.09,12.4c0.09,0.37,0.12,0.84,0.2,1.23c-6.62,0.5-13.17,1.77-19.76,2.76
					c-2.03,0.31-4.13,0.85-5.98,1.82c5.41-6.95,17.07-6.1,25.24-5.86c0.02,0.02,0-0.01,0.03,0.02
					C55.86,12.41,56.07,12.32,56.09,12.4z"/>
				<path class="st16" d="M55.74,10.08c0.07,0.35,0.13,0.7,0.18,1.05c-5.95-0.14-11.9,0.62-17.83,1.25
					c-1.25,0.13-2.58,0.48-3.78,0.91C40.76,9.2,48.34,9.82,55.74,10.08z"/>
				<path class="st16" d="M55.56,40.54c-0.61,0.3-1.26,0.53-1.87,0.81c-0.1-0.14-0.18-0.19-0.35-0.25
					c-1.61-0.53-3.21-1.15-4.75-1.88c0.15-0.69,0.32-1.38,0.52-2.07C51.2,38.4,53.3,39.63,55.56,40.54z"/>
				<path class="st16" d="M51.14,25.66c0.96-0.13,1.92-0.24,2.88-0.33c-1.56,1.48-2.56,3.17-3.52,5.08c-0.06,0.11-0.1,0.19-0.14,0.3
					c-0.28,0.83-0.67,1.6-0.95,2.44c-0.39-0.15-0.59,0.31-0.45,0.47c0.14,0.15,0.14,0.08,0.19,0.13c0.04,0.05,0,0.06-0.01,0.08
					c-0.89,2.52-1.51,4.98-1.93,7.62c-0.02,0.1-0.02,0.15-0.03,0.25c-0.06,1.33-0.2,2.64-0.09,3.98c-0.77,0.46-1.55,0.87-2.36,1.26
					C45.42,38.66,46.01,32.52,51.14,25.66z"/>
				<path class="st16" d="M53.25,41.55c-0.73,0.35-1.44,0.74-2.15,1.14c-0.05-0.13-0.12-0.18-0.27-0.21
					c-0.92-0.17-1.83-0.4-2.7-0.77c0.1-0.64,0.23-1.26,0.34-1.9C50.04,40.55,51.56,41.16,53.25,41.55z"/>
				<path class="st16" d="M50.74,6.51c1.63,0.67,3.18,1.45,4.68,2.39c-5.75-0.45-11.13-0.45-16.77,0.91
					c-0.01-0.04-0.02-0.08-0.04-0.11C42.64,8.3,46.48,6.97,50.74,6.51z"/>
				<path class="st16" d="M47.53,26.3c0.57-0.32,1.46-0.22,2.1-0.44c-5.04,6.8-6.27,13.01-5.41,21.32c-0.94,0.42-1.88,0.76-2.87,1.1
					c0.64-4.53,0.12-8.61,1.49-13.16c0.75-2.52,2.43-5.47,3.92-7.8C46.97,27,47.2,26.49,47.53,26.3z"/>
				<path class="st16" d="M48.06,42.22c0.84,0.4,1.68,0.66,2.61,0.78c-0.93,0.83-1.92,1.58-2.95,2.29
					C47.79,44.26,47.9,43.24,48.06,42.22z"/>
				<path class="st16" d="M43.66,27.18c0.77-0.26,1.77-0.54,2.54-0.61c-0.63,0.69-2.9,4.33-3.06,4.66c-1.22,2.5-1.91,4.62-2.25,6.72
					c-0.61,3.8-0.27,6.91-0.35,10.58c-0.19,0.02-0.38,0.1-0.58,0.14c-1.93-2.55-1.26-7.27-0.7-10.29c0.72-3.88,2.53-7.4,4.31-10.89
					C43.63,27.38,43.57,27.22,43.66,27.18z"/>
				<path class="st16" d="M39.72,28.43c0.8-0.29,1.6-0.59,2.42-0.84c-2.43,4.77-4.41,9.31-4.39,14.72c0.01,1.82,0.25,3.34,0.24,5.19
					c-2.9-1.97-3.53-2.83-2.96-7.48c0.11-0.85,4.12-8.78,3.64-10.68C39.27,29.18,39.81,29.14,39.72,28.43z"/>
				<path class="st16" d="M36.78,29.72c0.33-0.15,0.67-0.34,0.99-0.47c-0.92,1.45-1.6,3.4-2.19,4.92c-1.31,3.36-2.23,6.17-2.07,9.73
					c0.03,0.54,0.17,0.97,0.28,1.49C29.51,40.1,33.74,34.55,36.78,29.72z"/>
				<path class="st16" d="M31.71,32.63c1.06-0.7,2.14-1.4,3.26-2.01c-2.47,3.85-4.75,7.54-4.22,12.27
					c-3.12-3.27-1.12-6.55,0.94-9.85C31.8,32.87,31.79,32.79,31.71,32.63z"/>
				<path class="st16" d="M28.51,34.6c0.68-0.4,1.36-0.82,2.05-1.22c-1.63,2.27-2.83,4.52-2.43,7.39c-0.02,0.01-0.06,0.05-0.09,0.04
					c-0.03-0.01-0.02-0.07-0.04-0.1c-0.71-1-1.04-2.18-0.87-3.34C27.3,36.21,27.99,35.56,28.51,34.6z"/>
			</g>
		</g>
		<g class="st1">
			<path class="st2" d="M43.19,38.63c0.37,2.66-1.39,3.79-3.55,4.83c-2.46,1.19-5.1,1.91-7.81,2.21c-0.13,0.01-0.21-0.07-0.22-0.17
				c-0.02,0-0.03,0-0.05-0.01c-1.99-0.83-3.61-2.33-4.69-4.19c-0.87-1.49-1.57-3.44-1.19-5.18c-0.54-0.3-1.08-0.59-1.62-0.89
				c-0.87,0.78-2.87,0.54-2.69-1.05c0.1-0.88,0.99-1.4,1.82-1.37c0.72,0.03,1.5,0.57,1.34,1.3c0.55,0.28,1.1,0.58,1.64,0.9
				c0.1-0.23,0.24-0.46,0.41-0.64c-0.01-0.01-0.02-0.02-0.03-0.03c1.06-1.27,2.79-1.87,4.42-1.39c2.3,0.68,2.91,2.67,3.32,4.77
				c1.2-1.73,3.08-3.54,5.37-3.2C41.62,34.83,42.92,36.77,43.19,38.63z M42.76,39.51c0.06-1.83-1.03-4.01-2.94-4.45
				c-2.33-0.54-3.99,1.52-5.37,3.01c-0.04,0.04-0.08,0.05-0.12,0.05c-0.06,0.22-0.41,0.28-0.46,0.02c-0.39-2.07-0.85-4.13-3.18-4.73
				c-1.43-0.37-2.91,0.21-3.8,1.31c-0.02-0.03-0.05-0.05-0.07-0.08c-0.15,0.17-0.3,0.34-0.43,0.53c1.27,0.77,2.51,1.62,3.73,2.41
				c0.04,0.03,0.07,0.07,0.08,0.1c0.11-0.11,0.22-0.22,0.34-0.31c0.13-0.1,0.33,0.1,0.23,0.23c-0.18,0.24-0.42,0.43-0.63,0.64
				c-0.23,0.22-0.46,0.45-0.71,0.66c-0.12,0.1-0.28-0.05-0.17-0.18c0.1-0.12,0.21-0.24,0.32-0.36c-1.15-0.68-2.29-1.34-3.44-1.98
				c-0.36,1.89,0.62,4.02,1.7,5.52c1.01,1.41,2.36,2.48,3.85,3.34c0.01,0.01,0.02,0.02,0.03,0.02c0.04-0.03,0.08-0.05,0.13-0.06
				c2.06-0.22,4.08-0.7,6.01-1.46C39.76,42.97,42.67,41.92,42.76,39.51z M29.89,38c0.03-0.03,0.06-0.07,0.09-0.1
				c-0.02,0-0.03-0.01-0.05-0.02c-1.82-1.14-3.77-2.25-5.46-3.59c-0.01,0.02-0.02,0.03-0.02,0.05c0,0.27-0.07,0.51-0.21,0.7
				c1.95,0.68,3.93,1.78,5.54,3.06c0,0,0.01,0.01,0.01,0.01C29.82,38.07,29.85,38.03,29.89,38z M24.1,34.21
				c0.4-0.85-0.87-1.11-1.44-0.94c-0.54,0.15-0.96,0.6-0.92,1.19c0.09,1.3,2.04,0.98,2.39-0.03C24.09,34.37,24.07,34.29,24.1,34.21z
				"/>
			<path class="st17" d="M39.82,35.06c1.91,0.44,3,2.63,2.94,4.45c-0.08,2.41-2.99,3.46-4.92,4.21c-1.93,0.76-3.95,1.24-6.01,1.46
				c-0.05,0.01-0.09,0.03-0.13,0.06c-0.01-0.01-0.02-0.02-0.03-0.02c-1.49-0.86-2.84-1.93-3.85-3.34c-1.07-1.5-2.05-3.63-1.7-5.52
				c1.15,0.65,2.3,1.3,3.44,1.98c-0.11,0.12-0.22,0.24-0.32,0.36c-0.1,0.12,0.05,0.28,0.17,0.18c0.24-0.21,0.48-0.43,0.71-0.66
				c0.22-0.21,0.46-0.4,0.63-0.64c0.1-0.13-0.1-0.33-0.23-0.23c-0.12,0.09-0.23,0.2-0.34,0.31c-0.01-0.04-0.03-0.08-0.08-0.1
				c-1.22-0.79-2.46-1.64-3.73-2.41c0.13-0.19,0.28-0.36,0.43-0.53c0.02,0.03,0.05,0.05,0.07,0.08c0.89-1.1,2.37-1.68,3.8-1.31
				c2.34,0.6,2.79,2.67,3.18,4.73c0.05,0.26,0.4,0.2,0.46-0.02c0.04,0,0.09-0.01,0.12-0.05C35.83,36.58,37.49,34.52,39.82,35.06z
				 M42.23,39.78c0.15-0.35,0.23-0.72,0.15-1.1c-0.03-0.15-0.27-0.12-0.27,0.04c0.02,0.33,0.02,0.66-0.07,0.98
				C42.01,39.8,42.18,39.89,42.23,39.78z M41.85,37.86c0.05,0.11,0.19,0.02,0.17-0.07c-0.06-0.38-0.28-0.76-0.61-0.97
				c-0.13-0.08-0.26,0.1-0.16,0.2C41.51,37.28,41.71,37.53,41.85,37.86z M41.77,40.87c0.16-0.1,0.02-0.32-0.14-0.25
				c-0.3,0.14-0.59,0.32-0.87,0.5c-0.13,0.09-0.02,0.27,0.12,0.21C41.18,41.19,41.49,41.04,41.77,40.87z M40.85,36.23
				c0.14,0.06,0.26-0.12,0.12-0.21c-0.25-0.17-0.52-0.37-0.81-0.47c-0.13-0.04-0.25,0.15-0.14,0.24
				C40.26,35.98,40.57,36.1,40.85,36.23z M39.44,42.2c0.09-0.08,0-0.26-0.12-0.21c-0.19,0.07-0.36,0.19-0.55,0.26
				c-0.19,0.07-0.39,0.12-0.59,0.15c-0.13,0.02-0.1,0.25,0.03,0.24C38.62,42.59,39.12,42.48,39.44,42.2z M38.77,35.78
				c0.1,0,0.13-0.16,0.02-0.18c-0.45-0.09-0.96,0.02-1.33,0.29c-0.14,0.11-0.02,0.34,0.14,0.24C37.98,35.91,38.33,35.8,38.77,35.78z
				 M37.04,43.4c0.13-0.06,0.04-0.3-0.1-0.24c-0.39,0.15-0.76,0.25-1.19,0.28c-0.14,0.01-0.14,0.21,0,0.22
				C36.19,43.68,36.64,43.59,37.04,43.4z M36.9,36.59c0.12-0.04,0.08-0.23-0.05-0.2c-0.33,0.08-0.7,0.26-0.88,0.57
				c-0.08,0.13,0.1,0.26,0.21,0.16C36.4,36.9,36.6,36.7,36.9,36.59z M35.83,37.67c0.08-0.09-0.04-0.2-0.13-0.13
				c-0.12,0.1-0.24,0.2-0.36,0.31c-0.11,0.1,0.06,0.28,0.17,0.17C35.62,37.91,35.72,37.79,35.83,37.67z M34.51,44.2
				c0.14-0.07,0.04-0.29-0.11-0.25c-0.24,0.07-0.47,0.15-0.71,0.23c-0.13,0.04-0.08,0.24,0.06,0.21c0.12-0.03,0.24-0.06,0.36-0.09
				c0.04,0.03,0.09,0.04,0.14,0.02C34.33,44.28,34.42,44.24,34.51,44.2z M34.14,38.95c0.17-0.13-0.01-0.38-0.18-0.24
				c-0.17,0.14-0.36,0.14-0.51,0.06c0.02-0.02,0.03-0.06,0.01-0.09c-0.09-0.19-0.18-0.37-0.28-0.55c-0.05-0.1-0.22-0.08-0.25,0.03
				C32.76,38.86,33.56,39.39,34.14,38.95z M32.65,37.39c0.03,0.09,0.18,0.08,0.17-0.02c-0.02-0.27-0.05-0.55-0.12-0.81
				c-0.03-0.12-0.24-0.1-0.23,0.03C32.51,36.86,32.57,37.13,32.65,37.39z M32.42,44.44c0.13-0.05,0.11-0.24-0.03-0.24
				c-0.3-0.02-0.57,0.01-0.86-0.08c-0.31-0.09-0.56-0.26-0.8-0.48c-0.09-0.09-0.21,0.04-0.14,0.14
				C30.98,44.27,31.78,44.67,32.42,44.44z M32.07,35.72c0.03,0.11,0.21,0.09,0.2-0.03c-0.02-0.33-0.2-0.63-0.5-0.77
				c-0.14-0.07-0.26,0.12-0.13,0.21C31.85,35.27,32.01,35.47,32.07,35.72z M31.1,34.35c0.09-0.09-0.02-0.21-0.12-0.16
				c-0.04,0.02-0.1-0.05-0.13-0.07c-0.05-0.04-0.09-0.09-0.15-0.11c-0.1-0.05-0.23-0.03-0.3,0.07c-0.1,0.14,0,0.41,0.2,0.34
				c0.05-0.02,0.08-0.05,0.09-0.09c0.04,0.03,0.08,0.06,0.12,0.07C30.91,34.43,31.02,34.43,31.1,34.35z M29.68,43.38
				c0.1,0.14,0.33,0.02,0.24-0.14c-0.17-0.28-0.38-0.55-0.6-0.79c-0.07-0.08-0.18,0.02-0.14,0.11
				C29.33,42.84,29.49,43.13,29.68,43.38z M29.16,34.48c0.12-0.02,0.09-0.22-0.03-0.22c-0.41,0.02-0.81,0.2-1.06,0.54
				c-0.1,0.13,0.12,0.3,0.22,0.17C28.53,34.71,28.81,34.53,29.16,34.48z M28.49,41.71c0.09,0.08,0.25-0.02,0.18-0.13
				c-0.08-0.12-0.18-0.22-0.26-0.35c-0.08-0.13-0.16-0.26-0.21-0.4c-0.04-0.09-0.18-0.06-0.15,0.04
				C28.12,41.16,28.25,41.51,28.49,41.71z M27.6,40.25c0.1,0.09,0.25-0.05,0.15-0.15c-0.22-0.23-0.35-0.5-0.35-0.82
				c0-0.07-0.12-0.09-0.13-0.02C27.22,39.62,27.33,39.99,27.6,40.25z M27.11,38.41c0.05-0.3,0.01-0.62-0.01-0.93
				c-0.01-0.13-0.2-0.13-0.2,0c-0.02,0.3-0.06,0.63-0.01,0.93C26.91,38.52,27.09,38.52,27.11,38.41z"/>
			<path class="st2" d="M42.37,38.68c0.08,0.38,0.01,0.74-0.15,1.1c-0.05,0.11-0.21,0.03-0.18-0.08c0.08-0.33,0.08-0.65,0.07-0.98
				C42.1,38.56,42.34,38.53,42.37,38.68z"/>
			<path class="st2" d="M42.03,37.79c0.02,0.1-0.13,0.18-0.17,0.07c-0.15-0.33-0.35-0.58-0.6-0.84c-0.1-0.1,0.03-0.29,0.16-0.2
				C41.74,37.03,41.96,37.41,42.03,37.79z"/>
			<path class="st2" d="M41.62,40.62c0.16-0.07,0.3,0.15,0.14,0.25c-0.28,0.17-0.59,0.33-0.89,0.46c-0.14,0.06-0.25-0.12-0.12-0.21
				C41.03,40.94,41.32,40.76,41.62,40.62z"/>
			<path class="st2" d="M40.97,36.01c0.13,0.09,0.02,0.28-0.12,0.21c-0.28-0.12-0.59-0.25-0.83-0.44c-0.11-0.09,0.01-0.28,0.14-0.24
				C40.45,35.64,40.72,35.84,40.97,36.01z"/>
			<path class="st2" d="M39.32,41.98c0.12-0.05,0.22,0.13,0.12,0.21c-0.32,0.28-0.82,0.39-1.23,0.43c-0.13,0.01-0.17-0.22-0.03-0.24
				c0.2-0.03,0.4-0.08,0.59-0.15C38.96,42.17,39.13,42.06,39.32,41.98z"/>
			<path class="st2" d="M38.8,35.6c0.11,0.02,0.08,0.18-0.02,0.18c-0.44,0.01-0.79,0.12-1.17,0.36c-0.16,0.1-0.28-0.14-0.14-0.24
				C37.84,35.62,38.35,35.51,38.8,35.6z"/>
			<path class="st2" d="M36.93,43.16c0.14-0.05,0.24,0.18,0.1,0.24c-0.4,0.19-0.85,0.28-1.29,0.25c-0.14-0.01-0.14-0.21,0-0.22
				C36.17,43.4,36.54,43.31,36.93,43.16z"/>
			<path class="st2" d="M36.84,36.39c0.13-0.03,0.18,0.15,0.05,0.2c-0.3,0.11-0.5,0.32-0.73,0.53c-0.11,0.1-0.28-0.03-0.21-0.16
				C36.14,36.65,36.51,36.47,36.84,36.39z"/>
			<path class="st2" d="M35.7,37.55c0.09-0.07,0.2,0.04,0.13,0.13c-0.11,0.12-0.21,0.24-0.32,0.35c-0.11,0.11-0.28-0.06-0.17-0.17
				C35.46,37.75,35.58,37.65,35.7,37.55z"/>
			<path class="st2" d="M34.4,43.95c0.15-0.04,0.24,0.18,0.11,0.25c-0.09,0.04-0.17,0.08-0.26,0.12c-0.05,0.02-0.1,0.01-0.14-0.02
				c-0.12,0.03-0.24,0.06-0.36,0.09c-0.13,0.03-0.19-0.16-0.06-0.21C33.93,44.1,34.16,44.03,34.4,43.95z"/>
			<path class="st2" d="M33.95,38.71c0.17-0.14,0.35,0.11,0.18,0.24c-0.57,0.44-1.38-0.09-1.21-0.79c0.03-0.11,0.2-0.14,0.25-0.03
				c0.1,0.18,0.19,0.37,0.28,0.55c0.01,0.03,0.01,0.07-0.01,0.09C33.59,38.85,33.79,38.85,33.95,38.71z"/>
			<path class="st2" d="M32.82,37.37c0.01,0.1-0.15,0.11-0.17,0.02c-0.07-0.26-0.14-0.53-0.17-0.8c-0.01-0.13,0.2-0.15,0.23-0.03
				C32.76,36.82,32.79,37.1,32.82,37.37z"/>
			<path class="st2" d="M32.39,44.2c0.14,0.01,0.16,0.2,0.03,0.24c-0.63,0.23-1.44-0.17-1.83-0.67c-0.07-0.1,0.04-0.22,0.14-0.14
				c0.24,0.22,0.48,0.39,0.8,0.48C31.82,44.21,32.09,44.18,32.39,44.2z"/>
			<path class="st2" d="M32.27,35.69c0.01,0.12-0.17,0.14-0.2,0.03c-0.06-0.24-0.22-0.44-0.43-0.58c-0.13-0.09-0.02-0.28,0.13-0.21
				C32.07,35.05,32.25,35.36,32.27,35.69z"/>
			<path class="st2" d="M30.98,34.19c0.1-0.05,0.21,0.07,0.12,0.16c-0.08,0.08-0.19,0.08-0.3,0.04c-0.04-0.02-0.08-0.05-0.12-0.07
				c-0.01,0.04-0.04,0.08-0.09,0.09c-0.2,0.07-0.3-0.2-0.2-0.34c0.07-0.1,0.2-0.11,0.3-0.07c0.06,0.03,0.11,0.07,0.15,0.11
				C30.88,34.14,30.93,34.21,30.98,34.19z"/>
			<path class="st4" d="M29.98,37.89c-0.03,0.03-0.06,0.07-0.09,0.1c-0.03,0.04-0.07,0.07-0.1,0.11c0,0-0.01-0.01-0.01-0.01
				c-1.61-1.28-3.59-2.38-5.54-3.06c0.14-0.19,0.22-0.43,0.21-0.7c0.01-0.02,0.02-0.03,0.02-0.05c1.69,1.34,3.64,2.44,5.46,3.59
				C29.95,37.89,29.97,37.89,29.98,37.89z"/>
			<path class="st2" d="M29.92,43.25c0.1,0.15-0.13,0.28-0.24,0.14c-0.19-0.25-0.36-0.54-0.5-0.82c-0.04-0.09,0.07-0.19,0.14-0.11
				C29.54,42.7,29.75,42.97,29.92,43.25z"/>
			<path class="st2" d="M29.13,34.27c0.12,0,0.15,0.2,0.03,0.22c-0.36,0.05-0.63,0.23-0.86,0.5c-0.11,0.12-0.32-0.04-0.22-0.17
				C28.33,34.47,28.72,34.28,29.13,34.27z"/>
			<path class="st2" d="M28.67,41.57c0.07,0.11-0.09,0.21-0.18,0.13c-0.24-0.2-0.37-0.55-0.45-0.84c-0.02-0.1,0.12-0.13,0.15-0.04
				c0.05,0.14,0.13,0.28,0.21,0.4C28.49,41.35,28.59,41.45,28.67,41.57z"/>
			<path class="st2" d="M27.76,40.09c0.1,0.1-0.05,0.25-0.15,0.15c-0.27-0.25-0.38-0.62-0.33-0.99c0.01-0.07,0.13-0.05,0.13,0.02
				C27.41,39.6,27.53,39.86,27.76,40.09z"/>
			<path class="st2" d="M27.11,37.48c0.02,0.3,0.06,0.63,0.01,0.93c-0.02,0.11-0.2,0.11-0.22,0c-0.05-0.3-0.01-0.62,0.01-0.93
				C26.91,37.35,27.1,37.35,27.11,37.48z"/>
			<path class="st3" d="M22.66,33.27c0.57-0.16,1.84,0.09,1.44,0.94c-0.04,0.08-0.02,0.16,0.03,0.21c-0.35,1.01-2.3,1.34-2.39,0.03
				C21.7,33.87,22.12,33.42,22.66,33.27z"/>
		</g>
		<g class="st1">
			<path class="st2" d="M49.14,19.52c1.6,0.09,2.93,1.59,2.75,3.19c-0.15,1.35-1.45,2.91-2.91,2.52c-1.87,0.05-3.04-1.04-2.92-2.96
				C46.17,20.72,47.58,19.42,49.14,19.52z M48.94,24.84c1.62,0.49,2.85-1.57,2.54-2.95c-0.28-1.27-1.62-2.17-2.89-1.95
				c-1.5,0.26-2.31,1.67-2.09,3.11c0.21,1.36,1.11,1.65,2.23,1.9C48.75,24.86,48.83,24.8,48.94,24.84z"/>
			<path class="st18" d="M51.48,21.88c0.31,1.38-0.92,3.44-2.54,2.95c-0.11-0.03-0.18,0.03-0.21,0.11c-1.12-0.26-2.03-0.55-2.23-1.9
				c-0.22-1.44,0.6-2.85,2.09-3.11C49.85,19.72,51.19,20.62,51.48,21.88z M49.25,24.49c1.22,0.16,2.06-0.9,2-2.06
				c-0.07-1.45-1.17-2.07-2.51-1.97c-1.25,0.09-2,1.42-1.81,2.62c0.17,1.1,1.26,1.51,2.25,1.38C49.2,24.47,49.22,24.49,49.25,24.49z
				"/>
			<path class="st2" d="M51.26,22.44c0.05,1.16-0.79,2.22-2,2.06c-0.03-0.01-0.05-0.02-0.07-0.04c-0.99,0.14-2.08-0.27-2.25-1.38
				c-0.19-1.19,0.57-2.52,1.81-2.62C50.09,20.37,51.19,20.99,51.26,22.44z M49.3,24.14c1.12,0.04,1.74-0.97,1.53-2.01
				c-0.21-1.04-1.13-1.37-2.09-1.28c-1.02,0.09-1.71,1.44-1.38,2.4c0.26,0.76,1.11,0.94,1.81,0.95
				C49.2,24.17,49.25,24.14,49.3,24.14z"/>
			<path class="st18" d="M50.83,22.13c0.21,1.05-0.42,2.06-1.53,2.01c-0.05,0-0.1,0.02-0.13,0.06c-0.71-0.01-1.55-0.19-1.81-0.95
				c-0.33-0.96,0.36-2.31,1.38-2.4C49.71,20.76,50.63,21.09,50.83,22.13z M50.47,22.25c0.03,0.12,0.22,0.1,0.21-0.03
				c-0.03-0.49-0.47-0.91-0.95-0.98c-0.1-0.01-0.14,0.12-0.04,0.15C50.13,21.51,50.37,21.83,50.47,22.25z M49.81,23.89
				c0.31-0.08,0.51-0.41,0.36-0.72c-0.14-0.28-0.58-0.45-0.83-0.2c-0.01,0.01-0.03,0.03-0.03,0.05c-0.12,0.11-0.19,0.29-0.17,0.46
				C49.17,23.81,49.5,23.98,49.81,23.89z M48.72,22.55c0.32,0.03,0.6-0.22,0.57-0.55c-0.02-0.19-0.16-0.42-0.34-0.49
				c-0.01-0.01-0.02-0.02-0.03-0.03c-0.32-0.12-0.68,0.11-0.73,0.45C48.13,22.26,48.41,22.52,48.72,22.55z"/>
			<path class="st2" d="M50.69,22.22c0.01,0.12-0.18,0.15-0.21,0.03c-0.11-0.42-0.35-0.74-0.78-0.86c-0.1-0.03-0.06-0.17,0.04-0.15
				C50.22,21.31,50.66,21.73,50.69,22.22z"/>
			<path class="st2" d="M50.16,23.17c0.16,0.3-0.05,0.63-0.36,0.72c-0.31,0.08-0.64-0.08-0.68-0.42c-0.02-0.17,0.05-0.34,0.17-0.46
				c0.01-0.02,0.02-0.03,0.03-0.05C49.59,22.73,50.02,22.89,50.16,23.17z M49.7,23.59c0.12-0.02,0.24-0.13,0.19-0.26
				c-0.06-0.15-0.25-0.2-0.38-0.14c-0.01,0.01-0.03,0.01-0.04,0.01C49.38,23.39,49.43,23.65,49.7,23.59z"/>
			<path class="st2" d="M49.29,22c0.03,0.33-0.25,0.57-0.57,0.55c-0.31-0.03-0.59-0.29-0.53-0.62c0.05-0.34,0.41-0.56,0.73-0.45
				c0.01,0.01,0.02,0.02,0.03,0.03C49.13,21.58,49.27,21.81,49.29,22z M48.73,22.24c0.14,0.01,0.26-0.08,0.24-0.23
				c-0.02-0.16-0.17-0.24-0.3-0.3c-0.01,0-0.02-0.01-0.03-0.02c-0.1,0.06-0.18,0.16-0.19,0.28C48.45,22.12,48.59,22.23,48.73,22.24z
				"/>
		</g>
		<g class="st1">
			<path class="st2" d="M43.59,24.35c0.13,1.92-1.21,3.66-3.15,3.72c-1.9,0.39-3.78-1.21-4.04-3.06c-0.25-1.79,0.81-3.8,2.7-4.07
				c0.94-0.13,2.31-0.12,3.12,0.48C43.08,22.05,43.52,23.32,43.59,24.35z M40.21,27.75c1.87,0.06,3.14-1.61,3.02-3.4
				c-0.08-1.14-0.65-2.5-1.79-2.92c-0.59-0.22-1.51-0.23-2.14-0.15c-1.91,0.24-2.94,2.32-2.46,4.09c0.42,1.57,1.78,2.26,3.25,2.44
				C40.11,27.77,40.15,27.74,40.21,27.75z"/>
			<path class="st3" d="M43.22,24.35c0.12,1.79-1.15,3.46-3.02,3.4c-0.06,0-0.1,0.03-0.13,0.07c-1.47-0.18-2.82-0.87-3.25-2.44
				c-0.48-1.77,0.55-3.86,2.46-4.09c0.63-0.08,1.54-0.07,2.14,0.15C42.58,21.85,43.15,23.21,43.22,24.35z M39.91,26.79
				c1.6,0.05,2.87-0.89,2.64-2.63c-0.19-1.38-1.35-2.46-2.78-2.3c-1.4,0.15-2.46,1.5-2.3,2.89c0.13,1.16,1.15,2.07,2.29,1.91
				C39.77,26.73,39.82,26.78,39.91,26.79z M42.26,22.84c0.04,0.13,0.24,0.08,0.21-0.06c-0.12-0.56-0.59-0.99-1.13-1.15
				c-0.1-0.03-0.13,0.11-0.04,0.15C41.79,21.96,42.11,22.36,42.26,22.84z"/>
			<path class="st2" d="M42.54,24.16c0.24,1.74-1.04,2.68-2.64,2.63c-0.09,0-0.13-0.06-0.15-0.12c-1.15,0.15-2.16-0.75-2.29-1.91
				c-0.15-1.39,0.9-2.74,2.3-2.89C41.19,21.7,42.35,22.78,42.54,24.16z M40.05,26.45c1.41-0.11,2.48-0.98,2.05-2.56
				c-0.3-1.11-1.35-1.88-2.52-1.61c-2.44,0.56-2.17,4.15,0.4,4.14C40.01,26.42,40.03,26.43,40.05,26.45z"/>
			<path class="st2" d="M42.47,22.79c0.03,0.13-0.17,0.19-0.21,0.06c-0.15-0.49-0.47-0.88-0.96-1.06c-0.09-0.03-0.06-0.18,0.04-0.15
				C41.88,21.79,42.35,22.22,42.47,22.79z"/>
			<path class="st3" d="M42.09,23.89c0.43,1.58-0.63,2.45-2.05,2.56c-0.02-0.02-0.04-0.03-0.07-0.03c-2.57,0.02-2.83-3.57-0.4-4.14
				C40.75,22.01,41.79,22.79,42.09,23.89z M41.2,24.2c0.28-0.19,0.35-0.57,0.11-0.82c-0.21-0.21-0.64-0.27-0.82,0
				c-0.01,0.02-0.02,0.04-0.02,0.06c-0.11,0.15-0.14,0.36-0.07,0.54C40.52,24.33,40.92,24.39,41.2,24.2z M40.93,25.7
				c0.28-0.19,0.29-0.57,0.08-0.82c-0.11-0.12-0.27-0.21-0.43-0.19c-0.07,0.01-0.13,0.04-0.18,0.08c0,0,0,0-0.01,0
				c-0.29,0.12-0.42,0.49-0.26,0.77C40.28,25.82,40.67,25.87,40.93,25.7z M39.63,23.96c0.27-0.07,0.44-0.38,0.34-0.64
				c-0.08-0.22-0.37-0.36-0.59-0.25c-0.02-0.03-0.05-0.05-0.09-0.04c-0.25,0.06-0.37,0.38-0.29,0.61
				C39.08,23.89,39.38,24.03,39.63,23.96z M39.36,25.47c0.3-0.09,0.49-0.44,0.36-0.74C39.6,24.45,39.2,24.36,39,24.6
				c-0.23,0.04-0.37,0.29-0.32,0.52C38.74,25.42,39.08,25.55,39.36,25.47z"/>
			<path class="st2" d="M41.31,23.39c0.25,0.25,0.17,0.63-0.11,0.82c-0.28,0.19-0.68,0.12-0.81-0.21c-0.07-0.19-0.04-0.39,0.07-0.54
				c0-0.02,0-0.04,0.02-0.06C40.67,23.11,41.1,23.18,41.31,23.39z M41.05,23.97c0.14-0.1,0.2-0.28,0.06-0.41
				c-0.14-0.13-0.3-0.1-0.45-0.02C40.52,23.8,40.73,24.19,41.05,23.97z"/>
			<path class="st2" d="M41.01,24.88c0.21,0.25,0.2,0.63-0.08,0.82c-0.26,0.17-0.65,0.12-0.8-0.16c-0.16-0.28-0.03-0.65,0.26-0.77
				c0,0,0.01,0,0.01,0c0.05-0.04,0.11-0.07,0.18-0.08C40.74,24.67,40.9,24.75,41.01,24.88z M40.67,25.52
				c0.16-0.04,0.25-0.17,0.22-0.33c-0.02-0.07-0.06-0.14-0.11-0.18c-0.02-0.02-0.2-0.12-0.21-0.04c0,0.12-0.15,0.16-0.22,0.09
				C40.24,25.28,40.38,25.59,40.67,25.52z"/>
			<path class="st2" d="M39.97,23.32c0.1,0.26-0.07,0.57-0.34,0.64c-0.26,0.07-0.55-0.07-0.63-0.33c-0.08-0.23,0.04-0.55,0.29-0.61
				c0.04-0.01,0.08,0.01,0.09,0.04C39.6,22.96,39.89,23.1,39.97,23.32z M39.51,23.7c0.13-0.01,0.25-0.14,0.22-0.28
				c-0.04-0.14-0.18-0.14-0.29-0.1c-0.07,0.03-0.12-0.01-0.14-0.06c-0.05,0.07-0.08,0.15-0.06,0.24
				C39.26,23.63,39.39,23.71,39.51,23.7z"/>
			<path class="st2" d="M39.72,24.73c0.13,0.3-0.06,0.64-0.36,0.74c-0.27,0.08-0.62-0.04-0.68-0.35c-0.04-0.23,0.1-0.48,0.32-0.52
				C39.2,24.36,39.6,24.45,39.72,24.73z M39.24,25.22c0.16-0.03,0.29-0.19,0.24-0.35c-0.04-0.16-0.22-0.16-0.33-0.08
				c-0.04,0.04-0.1,0.02-0.14-0.01c-0.07,0.07-0.11,0.18-0.09,0.27C38.95,25.2,39.11,25.25,39.24,25.22z"/>
		</g>
	</g>
	<g>
		<g>
			<text transform="matrix(1.055 0 0 1 28.8352 91.5081)" class="st19 st20 st21">Handcraftand</text>
		</g>
		<g>
			<text transform="matrix(0.8944 0 0 1 33.6667 81.4915)" class="st22 st23 st24">ZAZA</text>
		</g>
	</g>
</g>
</svg>
